<mxfile host="Electron" modified="2023-12-18T12:48:43.092Z" agent="Mozilla/5.0 (Windows NT 10.0; Win64; x64) AppleWebKit/537.36 (KHTML, like Gecko) draw.io/21.7.5 Chrome/114.0.5735.289 Electron/25.8.1 Safari/537.36" etag="76UdU8HCmDl-cTedLaYV" version="21.7.5" type="device">
  <diagram id="C5RBs43oDa-KdzZeNtuy" name="Page-1">
    <mxGraphModel dx="5820" dy="2560" grid="0" gridSize="10" guides="1" tooltips="1" connect="1" arrows="1" fold="1" page="0" pageScale="1" pageWidth="827" pageHeight="1169" background="none" math="0" shadow="0">
      <root>
        <mxCell id="WIyWlLk6GJQsqaUBKTNV-0" />
        <mxCell id="WIyWlLk6GJQsqaUBKTNV-1" parent="WIyWlLk6GJQsqaUBKTNV-0" />
        <mxCell id="CTtwoH4sy8VoPbu_Y0XK-1" style="rounded=0;orthogonalLoop=1;jettySize=auto;html=1;endArrow=none;" parent="WIyWlLk6GJQsqaUBKTNV-1" source="CTtwoH4sy8VoPbu_Y0XK-0" target="CTtwoH4sy8VoPbu_Y0XK-2" edge="1">
          <mxGeometry relative="1" as="geometry">
            <mxPoint x="340" y="150" as="targetPoint" />
          </mxGeometry>
        </mxCell>
        <mxCell id="CTtwoH4sy8VoPbu_Y0XK-4" value="" style="rounded=0;orthogonalLoop=1;jettySize=auto;html=1;endArrow=none;" parent="WIyWlLk6GJQsqaUBKTNV-1" source="CTtwoH4sy8VoPbu_Y0XK-0" target="CTtwoH4sy8VoPbu_Y0XK-3" edge="1">
          <mxGeometry relative="1" as="geometry" />
        </mxCell>
        <mxCell id="CTtwoH4sy8VoPbu_Y0XK-6" value="" style="rounded=0;orthogonalLoop=1;jettySize=auto;html=1;endArrow=none;" parent="WIyWlLk6GJQsqaUBKTNV-1" source="CTtwoH4sy8VoPbu_Y0XK-0" target="CTtwoH4sy8VoPbu_Y0XK-5" edge="1">
          <mxGeometry relative="1" as="geometry" />
        </mxCell>
        <mxCell id="CTtwoH4sy8VoPbu_Y0XK-8" value="" style="rounded=0;orthogonalLoop=1;jettySize=auto;html=1;endArrow=none;" parent="WIyWlLk6GJQsqaUBKTNV-1" source="CTtwoH4sy8VoPbu_Y0XK-0" target="CTtwoH4sy8VoPbu_Y0XK-7" edge="1">
          <mxGeometry relative="1" as="geometry" />
        </mxCell>
        <mxCell id="CTtwoH4sy8VoPbu_Y0XK-10" value="" style="rounded=0;orthogonalLoop=1;jettySize=auto;html=1;endArrow=none;" parent="WIyWlLk6GJQsqaUBKTNV-1" source="CTtwoH4sy8VoPbu_Y0XK-0" target="CTtwoH4sy8VoPbu_Y0XK-9" edge="1">
          <mxGeometry relative="1" as="geometry" />
        </mxCell>
        <mxCell id="CTtwoH4sy8VoPbu_Y0XK-12" value="" style="rounded=0;orthogonalLoop=1;jettySize=auto;html=1;endArrow=none;" parent="WIyWlLk6GJQsqaUBKTNV-1" source="CTtwoH4sy8VoPbu_Y0XK-0" target="CTtwoH4sy8VoPbu_Y0XK-11" edge="1">
          <mxGeometry relative="1" as="geometry" />
        </mxCell>
        <mxCell id="CTtwoH4sy8VoPbu_Y0XK-14" value="" style="rounded=0;orthogonalLoop=1;jettySize=auto;html=1;endArrow=none;exitX=0;exitY=0.25;exitDx=0;exitDy=0;" parent="WIyWlLk6GJQsqaUBKTNV-1" source="CTtwoH4sy8VoPbu_Y0XK-0" target="CTtwoH4sy8VoPbu_Y0XK-13" edge="1">
          <mxGeometry relative="1" as="geometry" />
        </mxCell>
        <mxCell id="CTtwoH4sy8VoPbu_Y0XK-16" value="" style="rounded=0;orthogonalLoop=1;jettySize=auto;html=1;endArrow=none;" parent="WIyWlLk6GJQsqaUBKTNV-1" source="CTtwoH4sy8VoPbu_Y0XK-0" target="CTtwoH4sy8VoPbu_Y0XK-15" edge="1">
          <mxGeometry relative="1" as="geometry" />
        </mxCell>
        <mxCell id="CTtwoH4sy8VoPbu_Y0XK-18" value="" style="rounded=0;orthogonalLoop=1;jettySize=auto;html=1;endArrow=none;" parent="WIyWlLk6GJQsqaUBKTNV-1" source="CTtwoH4sy8VoPbu_Y0XK-0" target="CTtwoH4sy8VoPbu_Y0XK-17" edge="1">
          <mxGeometry relative="1" as="geometry" />
        </mxCell>
        <mxCell id="CTtwoH4sy8VoPbu_Y0XK-20" value="" style="rounded=0;orthogonalLoop=1;jettySize=auto;html=1;endArrow=none;" parent="WIyWlLk6GJQsqaUBKTNV-1" source="CTtwoH4sy8VoPbu_Y0XK-0" target="CTtwoH4sy8VoPbu_Y0XK-19" edge="1">
          <mxGeometry relative="1" as="geometry" />
        </mxCell>
        <mxCell id="CTtwoH4sy8VoPbu_Y0XK-0" value="&lt;font style=&quot;font-size: 20px;&quot;&gt;GIAOVIEN&lt;/font&gt;" style="rounded=0;whiteSpace=wrap;html=1;" parent="WIyWlLk6GJQsqaUBKTNV-1" vertex="1">
          <mxGeometry x="680" y="-485" width="120" height="60" as="geometry" />
        </mxCell>
        <mxCell id="CTtwoH4sy8VoPbu_Y0XK-2" value="&lt;u&gt;&lt;font style=&quot;font-size: 20px;&quot;&gt;MA&lt;/font&gt;&lt;/u&gt;" style="ellipse;whiteSpace=wrap;html=1;" parent="WIyWlLk6GJQsqaUBKTNV-1" vertex="1">
          <mxGeometry x="606.5" y="-595" width="90" height="80" as="geometry" />
        </mxCell>
        <mxCell id="CTtwoH4sy8VoPbu_Y0XK-3" value="&lt;font style=&quot;font-size: 20px;&quot;&gt;HO&lt;/font&gt;" style="ellipse;whiteSpace=wrap;html=1;rounded=0;" parent="WIyWlLk6GJQsqaUBKTNV-1" vertex="1">
          <mxGeometry x="693" y="-360" width="80" height="80" as="geometry" />
        </mxCell>
        <mxCell id="CTtwoH4sy8VoPbu_Y0XK-5" value="&lt;font style=&quot;font-size: 20px;&quot;&gt;TENLOT&lt;/font&gt;" style="ellipse;whiteSpace=wrap;html=1;rounded=0;" parent="WIyWlLk6GJQsqaUBKTNV-1" vertex="1">
          <mxGeometry x="523" y="-270" width="103" height="80" as="geometry" />
        </mxCell>
        <mxCell id="CTtwoH4sy8VoPbu_Y0XK-7" value="&lt;font style=&quot;font-size: 20px;&quot;&gt;TEN&lt;/font&gt;" style="ellipse;whiteSpace=wrap;html=1;rounded=0;" parent="WIyWlLk6GJQsqaUBKTNV-1" vertex="1">
          <mxGeometry x="740" y="-280" width="80" height="80" as="geometry" />
        </mxCell>
        <mxCell id="CTtwoH4sy8VoPbu_Y0XK-9" value="&lt;font style=&quot;font-size: 20px;&quot;&gt;PHAI&lt;/font&gt;" style="ellipse;whiteSpace=wrap;html=1;rounded=0;" parent="WIyWlLk6GJQsqaUBKTNV-1" vertex="1">
          <mxGeometry x="635.75" y="-280" width="80" height="80" as="geometry" />
        </mxCell>
        <mxCell id="CTtwoH4sy8VoPbu_Y0XK-11" value="&lt;font style=&quot;font-size: 20px;&quot;&gt;NGSINH&lt;/font&gt;" style="ellipse;whiteSpace=wrap;html=1;rounded=0;" parent="WIyWlLk6GJQsqaUBKTNV-1" vertex="1">
          <mxGeometry x="545.5" y="-350" width="80" height="80" as="geometry" />
        </mxCell>
        <mxCell id="CTtwoH4sy8VoPbu_Y0XK-13" value="&lt;font style=&quot;font-size: 20px;&quot;&gt;LUONG&lt;/font&gt;" style="ellipse;whiteSpace=wrap;html=1;rounded=0;" parent="WIyWlLk6GJQsqaUBKTNV-1" vertex="1">
          <mxGeometry x="513" y="-570" width="80" height="80" as="geometry" />
        </mxCell>
        <mxCell id="CTtwoH4sy8VoPbu_Y0XK-15" value="&lt;font style=&quot;font-size: 20px;&quot;&gt;BO_MON&lt;/font&gt;" style="ellipse;whiteSpace=wrap;html=1;rounded=0;" parent="WIyWlLk6GJQsqaUBKTNV-1" vertex="1">
          <mxGeometry x="444" y="-330" width="100" height="80" as="geometry" />
        </mxCell>
        <mxCell id="CTtwoH4sy8VoPbu_Y0XK-17" value="&lt;font style=&quot;font-size: 20px;&quot;&gt;KHOA&lt;/font&gt;" style="ellipse;whiteSpace=wrap;html=1;rounded=0;" parent="WIyWlLk6GJQsqaUBKTNV-1" vertex="1">
          <mxGeometry x="523" y="-170" width="80" height="80" as="geometry" />
        </mxCell>
        <mxCell id="CTtwoH4sy8VoPbu_Y0XK-19" value="&lt;font style=&quot;font-size: 20px;&quot;&gt;PHU_CAP&lt;/font&gt;" style="ellipse;whiteSpace=wrap;html=1;rounded=0;" parent="WIyWlLk6GJQsqaUBKTNV-1" vertex="1">
          <mxGeometry x="467.5" y="-420" width="120" height="80" as="geometry" />
        </mxCell>
        <mxCell id="CTtwoH4sy8VoPbu_Y0XK-23" value="" style="rounded=0;orthogonalLoop=1;jettySize=auto;html=1;endArrow=none;" parent="WIyWlLk6GJQsqaUBKTNV-1" source="CTtwoH4sy8VoPbu_Y0XK-21" target="CTtwoH4sy8VoPbu_Y0XK-22" edge="1">
          <mxGeometry relative="1" as="geometry" />
        </mxCell>
        <mxCell id="CTtwoH4sy8VoPbu_Y0XK-25" value="" style="rounded=0;orthogonalLoop=1;jettySize=auto;html=1;endArrow=none;" parent="WIyWlLk6GJQsqaUBKTNV-1" source="CTtwoH4sy8VoPbu_Y0XK-21" target="CTtwoH4sy8VoPbu_Y0XK-24" edge="1">
          <mxGeometry relative="1" as="geometry" />
        </mxCell>
        <mxCell id="CTtwoH4sy8VoPbu_Y0XK-27" value="" style="rounded=0;orthogonalLoop=1;jettySize=auto;html=1;endArrow=none;" parent="WIyWlLk6GJQsqaUBKTNV-1" source="CTtwoH4sy8VoPbu_Y0XK-21" target="CTtwoH4sy8VoPbu_Y0XK-26" edge="1">
          <mxGeometry relative="1" as="geometry" />
        </mxCell>
        <mxCell id="CTtwoH4sy8VoPbu_Y0XK-29" value="" style="rounded=0;orthogonalLoop=1;jettySize=auto;html=1;endArrow=none;" parent="WIyWlLk6GJQsqaUBKTNV-1" source="CTtwoH4sy8VoPbu_Y0XK-21" target="CTtwoH4sy8VoPbu_Y0XK-28" edge="1">
          <mxGeometry relative="1" as="geometry" />
        </mxCell>
        <mxCell id="CTtwoH4sy8VoPbu_Y0XK-31" value="" style="rounded=0;orthogonalLoop=1;jettySize=auto;html=1;endArrow=none;" parent="WIyWlLk6GJQsqaUBKTNV-1" source="CTtwoH4sy8VoPbu_Y0XK-21" target="CTtwoH4sy8VoPbu_Y0XK-30" edge="1">
          <mxGeometry relative="1" as="geometry" />
        </mxCell>
        <mxCell id="CTtwoH4sy8VoPbu_Y0XK-33" value="" style="rounded=0;orthogonalLoop=1;jettySize=auto;html=1;endArrow=none;" parent="WIyWlLk6GJQsqaUBKTNV-1" source="CTtwoH4sy8VoPbu_Y0XK-21" target="CTtwoH4sy8VoPbu_Y0XK-32" edge="1">
          <mxGeometry relative="1" as="geometry" />
        </mxCell>
        <mxCell id="CTtwoH4sy8VoPbu_Y0XK-35" value="" style="rounded=0;orthogonalLoop=1;jettySize=auto;html=1;endArrow=none;" parent="WIyWlLk6GJQsqaUBKTNV-1" source="CTtwoH4sy8VoPbu_Y0XK-21" target="CTtwoH4sy8VoPbu_Y0XK-34" edge="1">
          <mxGeometry relative="1" as="geometry" />
        </mxCell>
        <mxCell id="CTtwoH4sy8VoPbu_Y0XK-21" value="&lt;font style=&quot;font-size: 20px;&quot;&gt;KHOA&lt;/font&gt;" style="rounded=0;whiteSpace=wrap;html=1;" parent="WIyWlLk6GJQsqaUBKTNV-1" vertex="1">
          <mxGeometry x="910" y="-1010" width="120" height="60" as="geometry" />
        </mxCell>
        <mxCell id="CTtwoH4sy8VoPbu_Y0XK-22" value="&lt;u&gt;&lt;font style=&quot;font-size: 20px;&quot;&gt;MA&lt;/font&gt;&lt;/u&gt;" style="ellipse;whiteSpace=wrap;html=1;rounded=0;" parent="WIyWlLk6GJQsqaUBKTNV-1" vertex="1">
          <mxGeometry x="936.5" y="-1200" width="80" height="80" as="geometry" />
        </mxCell>
        <mxCell id="CTtwoH4sy8VoPbu_Y0XK-24" value="&lt;font style=&quot;font-size: 20px;&quot;&gt;TEN&lt;/font&gt;" style="ellipse;whiteSpace=wrap;html=1;rounded=0;" parent="WIyWlLk6GJQsqaUBKTNV-1" vertex="1">
          <mxGeometry x="1030" y="-1190" width="80" height="80" as="geometry" />
        </mxCell>
        <mxCell id="CTtwoH4sy8VoPbu_Y0XK-26" value="&lt;font style=&quot;font-size: 20px;&quot;&gt;NAM_THANH_LAP&lt;/font&gt;" style="ellipse;whiteSpace=wrap;html=1;rounded=0;" parent="WIyWlLk6GJQsqaUBKTNV-1" vertex="1">
          <mxGeometry x="1141" y="-1300" width="200" height="110" as="geometry" />
        </mxCell>
        <mxCell id="CTtwoH4sy8VoPbu_Y0XK-28" value="&lt;font style=&quot;font-size: 20px;&quot;&gt;PHONG_LAM_VIEC&lt;/font&gt;" style="ellipse;whiteSpace=wrap;html=1;rounded=0;" parent="WIyWlLk6GJQsqaUBKTNV-1" vertex="1">
          <mxGeometry x="1140" y="-1090" width="210" height="110" as="geometry" />
        </mxCell>
        <mxCell id="CTtwoH4sy8VoPbu_Y0XK-30" value="&lt;font style=&quot;font-size: 20px;&quot;&gt;SO_DIEN_THOAI&lt;/font&gt;" style="ellipse;whiteSpace=wrap;html=1;rounded=0;" parent="WIyWlLk6GJQsqaUBKTNV-1" vertex="1">
          <mxGeometry x="952.5" y="-1295" width="185" height="100" as="geometry" />
        </mxCell>
        <mxCell id="CTtwoH4sy8VoPbu_Y0XK-32" value="&lt;font style=&quot;font-size: 20px;&quot;&gt;TRUONG_KHOA&lt;/font&gt;" style="ellipse;whiteSpace=wrap;html=1;rounded=0;" parent="WIyWlLk6GJQsqaUBKTNV-1" vertex="1">
          <mxGeometry x="1175.5" y="-1190" width="195" height="100" as="geometry" />
        </mxCell>
        <mxCell id="CTtwoH4sy8VoPbu_Y0XK-34" value="&lt;font style=&quot;font-size: 20px;&quot;&gt;NGAY_NHAN_CHUC&lt;/font&gt;" style="ellipse;whiteSpace=wrap;html=1;rounded=0;" parent="WIyWlLk6GJQsqaUBKTNV-1" vertex="1">
          <mxGeometry x="785" y="-1390" width="230" height="110" as="geometry" />
        </mxCell>
        <mxCell id="CTtwoH4sy8VoPbu_Y0XK-37" value="z" style="rounded=0;orthogonalLoop=1;jettySize=auto;html=1;endArrow=none;" parent="WIyWlLk6GJQsqaUBKTNV-1" source="CTtwoH4sy8VoPbu_Y0XK-44" target="CTtwoH4sy8VoPbu_Y0XK-45" edge="1">
          <mxGeometry relative="1" as="geometry" />
        </mxCell>
        <mxCell id="CTtwoH4sy8VoPbu_Y0XK-38" value="" style="rounded=0;orthogonalLoop=1;jettySize=auto;html=1;endArrow=none;" parent="WIyWlLk6GJQsqaUBKTNV-1" source="CTtwoH4sy8VoPbu_Y0XK-44" target="CTtwoH4sy8VoPbu_Y0XK-46" edge="1">
          <mxGeometry relative="1" as="geometry" />
        </mxCell>
        <mxCell id="CTtwoH4sy8VoPbu_Y0XK-39" value="" style="rounded=0;orthogonalLoop=1;jettySize=auto;html=1;endArrow=none;" parent="WIyWlLk6GJQsqaUBKTNV-1" source="CTtwoH4sy8VoPbu_Y0XK-44" target="CTtwoH4sy8VoPbu_Y0XK-47" edge="1">
          <mxGeometry relative="1" as="geometry" />
        </mxCell>
        <mxCell id="CTtwoH4sy8VoPbu_Y0XK-40" value="" style="rounded=0;orthogonalLoop=1;jettySize=auto;html=1;endArrow=none;" parent="WIyWlLk6GJQsqaUBKTNV-1" source="CTtwoH4sy8VoPbu_Y0XK-44" target="CTtwoH4sy8VoPbu_Y0XK-48" edge="1">
          <mxGeometry relative="1" as="geometry" />
        </mxCell>
        <mxCell id="CTtwoH4sy8VoPbu_Y0XK-41" value="" style="rounded=0;orthogonalLoop=1;jettySize=auto;html=1;endArrow=none;" parent="WIyWlLk6GJQsqaUBKTNV-1" source="CTtwoH4sy8VoPbu_Y0XK-44" target="CTtwoH4sy8VoPbu_Y0XK-49" edge="1">
          <mxGeometry relative="1" as="geometry" />
        </mxCell>
        <mxCell id="CTtwoH4sy8VoPbu_Y0XK-42" value="" style="rounded=0;orthogonalLoop=1;jettySize=auto;html=1;endArrow=none;" parent="WIyWlLk6GJQsqaUBKTNV-1" source="CTtwoH4sy8VoPbu_Y0XK-44" target="CTtwoH4sy8VoPbu_Y0XK-50" edge="1">
          <mxGeometry relative="1" as="geometry" />
        </mxCell>
        <mxCell id="CTtwoH4sy8VoPbu_Y0XK-43" value="" style="rounded=0;orthogonalLoop=1;jettySize=auto;html=1;endArrow=none;" parent="WIyWlLk6GJQsqaUBKTNV-1" source="CTtwoH4sy8VoPbu_Y0XK-44" target="CTtwoH4sy8VoPbu_Y0XK-51" edge="1">
          <mxGeometry relative="1" as="geometry" />
        </mxCell>
        <mxCell id="CTtwoH4sy8VoPbu_Y0XK-44" value="&lt;font style=&quot;font-size: 20px;&quot;&gt;BO_MON&lt;/font&gt;" style="rounded=0;whiteSpace=wrap;html=1;" parent="WIyWlLk6GJQsqaUBKTNV-1" vertex="1">
          <mxGeometry x="1020" y="-755" width="120" height="60" as="geometry" />
        </mxCell>
        <mxCell id="CTtwoH4sy8VoPbu_Y0XK-45" value="&lt;u&gt;&lt;font style=&quot;font-size: 20px;&quot;&gt;MA&lt;/font&gt;&lt;/u&gt;" style="ellipse;whiteSpace=wrap;html=1;rounded=0;" parent="WIyWlLk6GJQsqaUBKTNV-1" vertex="1">
          <mxGeometry x="1280" y="-790" width="80" height="80" as="geometry" />
        </mxCell>
        <mxCell id="CTtwoH4sy8VoPbu_Y0XK-46" value="&lt;font style=&quot;font-size: 20px;&quot;&gt;TEN&lt;/font&gt;" style="ellipse;whiteSpace=wrap;html=1;rounded=0;" parent="WIyWlLk6GJQsqaUBKTNV-1" vertex="1">
          <mxGeometry x="1199.25" y="-750" width="93.5" height="80" as="geometry" />
        </mxCell>
        <mxCell id="CTtwoH4sy8VoPbu_Y0XK-47" value="&lt;font style=&quot;font-size: 20px;&quot;&gt;PHONG&lt;/font&gt;" style="ellipse;whiteSpace=wrap;html=1;rounded=0;" parent="WIyWlLk6GJQsqaUBKTNV-1" vertex="1">
          <mxGeometry x="1240" y="-675" width="80" height="80" as="geometry" />
        </mxCell>
        <mxCell id="CTtwoH4sy8VoPbu_Y0XK-48" value="&lt;font style=&quot;font-size: 20px;&quot;&gt;MA_KHOA&lt;/font&gt;" style="ellipse;whiteSpace=wrap;html=1;rounded=0;" parent="WIyWlLk6GJQsqaUBKTNV-1" vertex="1">
          <mxGeometry x="1083.25" y="-965" width="110" height="80" as="geometry" />
        </mxCell>
        <mxCell id="CTtwoH4sy8VoPbu_Y0XK-49" value="&lt;font style=&quot;font-size: 20px;&quot;&gt;SO_DIEN_THOAI&lt;/font&gt;" style="ellipse;whiteSpace=wrap;html=1;rounded=0;" parent="WIyWlLk6GJQsqaUBKTNV-1" vertex="1">
          <mxGeometry x="1195.5" y="-985" width="170" height="90" as="geometry" />
        </mxCell>
        <mxCell id="CTtwoH4sy8VoPbu_Y0XK-50" value="&lt;font style=&quot;font-size: 20px;&quot;&gt;TRUONG_BO_MON&lt;/font&gt;" style="ellipse;whiteSpace=wrap;html=1;rounded=0;" parent="WIyWlLk6GJQsqaUBKTNV-1" vertex="1">
          <mxGeometry x="1199.25" y="-890" width="210" height="100" as="geometry" />
        </mxCell>
        <mxCell id="CTtwoH4sy8VoPbu_Y0XK-51" value="&lt;font style=&quot;font-size: 20px;&quot;&gt;NGAY_NHAN_CHUC&lt;/font&gt;" style="ellipse;whiteSpace=wrap;html=1;rounded=0;" parent="WIyWlLk6GJQsqaUBKTNV-1" vertex="1">
          <mxGeometry x="1175.5" y="-590" width="210" height="70" as="geometry" />
        </mxCell>
        <mxCell id="b8Esm8HIKwyEbSy9mFFW-3" value="" style="rounded=0;orthogonalLoop=1;jettySize=auto;html=1;endArrow=none;" parent="WIyWlLk6GJQsqaUBKTNV-1" source="b8Esm8HIKwyEbSy9mFFW-0" target="b8Esm8HIKwyEbSy9mFFW-2" edge="1">
          <mxGeometry relative="1" as="geometry" />
        </mxCell>
        <mxCell id="b8Esm8HIKwyEbSy9mFFW-5" value="" style="rounded=0;orthogonalLoop=1;jettySize=auto;html=1;endArrow=none;" parent="WIyWlLk6GJQsqaUBKTNV-1" source="b8Esm8HIKwyEbSy9mFFW-0" target="b8Esm8HIKwyEbSy9mFFW-4" edge="1">
          <mxGeometry relative="1" as="geometry" />
        </mxCell>
        <mxCell id="b8Esm8HIKwyEbSy9mFFW-0" value="&lt;font style=&quot;font-size: 20px;&quot;&gt;PHONG&lt;/font&gt;" style="rounded=0;whiteSpace=wrap;html=1;" parent="WIyWlLk6GJQsqaUBKTNV-1" vertex="1">
          <mxGeometry x="595.75" y="-1229" width="120" height="60" as="geometry" />
        </mxCell>
        <mxCell id="b8Esm8HIKwyEbSy9mFFW-2" value="&lt;u&gt;&lt;font style=&quot;font-size: 20px;&quot;&gt;MA&lt;/font&gt;&lt;/u&gt;" style="ellipse;whiteSpace=wrap;html=1;rounded=0;" parent="WIyWlLk6GJQsqaUBKTNV-1" vertex="1">
          <mxGeometry x="557" y="-1330" width="80" height="80" as="geometry" />
        </mxCell>
        <mxCell id="b8Esm8HIKwyEbSy9mFFW-4" value="&lt;font style=&quot;font-size: 20px;&quot;&gt;TEN&lt;/font&gt;" style="ellipse;whiteSpace=wrap;html=1;rounded=0;" parent="WIyWlLk6GJQsqaUBKTNV-1" vertex="1">
          <mxGeometry x="690" y="-1340" width="80" height="80" as="geometry" />
        </mxCell>
        <mxCell id="b8Esm8HIKwyEbSy9mFFW-10" value="" style="rounded=0;orthogonalLoop=1;jettySize=auto;html=1;endArrow=none;" parent="WIyWlLk6GJQsqaUBKTNV-1" source="b8Esm8HIKwyEbSy9mFFW-6" target="b8Esm8HIKwyEbSy9mFFW-9" edge="1">
          <mxGeometry relative="1" as="geometry" />
        </mxCell>
        <mxCell id="b8Esm8HIKwyEbSy9mFFW-6" value="&lt;font style=&quot;font-size: 20px;&quot;&gt;SO_DIEN_THOAI&lt;/font&gt;" style="rounded=0;whiteSpace=wrap;html=1;" parent="WIyWlLk6GJQsqaUBKTNV-1" vertex="1">
          <mxGeometry x="618" y="-105" width="177" height="50" as="geometry" />
        </mxCell>
        <mxCell id="b8Esm8HIKwyEbSy9mFFW-9" value="&lt;u style=&quot;&quot;&gt;&lt;font style=&quot;font-size: 20px;&quot;&gt;SDT&lt;/font&gt;&lt;/u&gt;" style="ellipse;whiteSpace=wrap;html=1;rounded=0;" parent="WIyWlLk6GJQsqaUBKTNV-1" vertex="1">
          <mxGeometry x="690" y="-195" width="80" height="80" as="geometry" />
        </mxCell>
        <mxCell id="b8Esm8HIKwyEbSy9mFFW-15" value="" style="rounded=0;orthogonalLoop=1;jettySize=auto;html=1;endArrow=none;" parent="WIyWlLk6GJQsqaUBKTNV-1" source="b8Esm8HIKwyEbSy9mFFW-11" target="b8Esm8HIKwyEbSy9mFFW-14" edge="1">
          <mxGeometry relative="1" as="geometry" />
        </mxCell>
        <mxCell id="b8Esm8HIKwyEbSy9mFFW-17" value="" style="rounded=0;orthogonalLoop=1;jettySize=auto;html=1;endArrow=none;" parent="WIyWlLk6GJQsqaUBKTNV-1" source="b8Esm8HIKwyEbSy9mFFW-11" target="b8Esm8HIKwyEbSy9mFFW-16" edge="1">
          <mxGeometry relative="1" as="geometry" />
        </mxCell>
        <mxCell id="b8Esm8HIKwyEbSy9mFFW-19" value="" style="rounded=0;orthogonalLoop=1;jettySize=auto;html=1;endArrow=none;" parent="WIyWlLk6GJQsqaUBKTNV-1" source="b8Esm8HIKwyEbSy9mFFW-11" target="b8Esm8HIKwyEbSy9mFFW-18" edge="1">
          <mxGeometry relative="1" as="geometry" />
        </mxCell>
        <mxCell id="b8Esm8HIKwyEbSy9mFFW-21" value="" style="rounded=0;orthogonalLoop=1;jettySize=auto;html=1;endArrow=none;" parent="WIyWlLk6GJQsqaUBKTNV-1" source="b8Esm8HIKwyEbSy9mFFW-11" target="b8Esm8HIKwyEbSy9mFFW-20" edge="1">
          <mxGeometry relative="1" as="geometry" />
        </mxCell>
        <mxCell id="b8Esm8HIKwyEbSy9mFFW-11" value="&lt;font style=&quot;font-size: 20px;&quot;&gt;DIA_CHI&lt;/font&gt;" style="rounded=0;whiteSpace=wrap;html=1;" parent="WIyWlLk6GJQsqaUBKTNV-1" vertex="1">
          <mxGeometry x="315" y="-337.5" width="120" height="60" as="geometry" />
        </mxCell>
        <mxCell id="b8Esm8HIKwyEbSy9mFFW-14" value="&lt;font style=&quot;font-size: 20px;&quot;&gt;SONHA&lt;/font&gt;" style="ellipse;whiteSpace=wrap;html=1;rounded=0;" parent="WIyWlLk6GJQsqaUBKTNV-1" vertex="1">
          <mxGeometry x="270" y="-160" width="80" height="80" as="geometry" />
        </mxCell>
        <mxCell id="b8Esm8HIKwyEbSy9mFFW-16" value="&lt;font style=&quot;font-size: 20px;&quot;&gt;DUONG&lt;/font&gt;" style="ellipse;whiteSpace=wrap;html=1;rounded=0;" parent="WIyWlLk6GJQsqaUBKTNV-1" vertex="1">
          <mxGeometry x="410" y="-250" width="80" height="80" as="geometry" />
        </mxCell>
        <mxCell id="b8Esm8HIKwyEbSy9mFFW-18" value="&lt;font style=&quot;font-size: 20px;&quot;&gt;QUAN&lt;/font&gt;" style="ellipse;whiteSpace=wrap;html=1;rounded=0;" parent="WIyWlLk6GJQsqaUBKTNV-1" vertex="1">
          <mxGeometry x="340" y="-210" width="80" height="80" as="geometry" />
        </mxCell>
        <mxCell id="b8Esm8HIKwyEbSy9mFFW-20" value="&lt;font style=&quot;font-size: 20px;&quot;&gt;THANHPHO&lt;/font&gt;" style="ellipse;whiteSpace=wrap;html=1;rounded=0;" parent="WIyWlLk6GJQsqaUBKTNV-1" vertex="1">
          <mxGeometry x="183" y="-270" width="157" height="80" as="geometry" />
        </mxCell>
        <mxCell id="b8Esm8HIKwyEbSy9mFFW-24" value="" style="rounded=0;orthogonalLoop=1;jettySize=auto;html=1;endArrow=none;" parent="WIyWlLk6GJQsqaUBKTNV-1" source="b8Esm8HIKwyEbSy9mFFW-22" target="b8Esm8HIKwyEbSy9mFFW-23" edge="1">
          <mxGeometry relative="1" as="geometry" />
        </mxCell>
        <mxCell id="b8Esm8HIKwyEbSy9mFFW-26" value="" style="rounded=0;orthogonalLoop=1;jettySize=auto;html=1;endArrow=none;" parent="WIyWlLk6GJQsqaUBKTNV-1" source="b8Esm8HIKwyEbSy9mFFW-22" target="b8Esm8HIKwyEbSy9mFFW-25" edge="1">
          <mxGeometry relative="1" as="geometry" />
        </mxCell>
        <mxCell id="b8Esm8HIKwyEbSy9mFFW-22" value="&lt;font style=&quot;font-size: 20px;&quot;&gt;CHU_DE&lt;/font&gt;" style="rounded=0;whiteSpace=wrap;html=1;" parent="WIyWlLk6GJQsqaUBKTNV-1" vertex="1">
          <mxGeometry x="300" y="-910" width="120" height="60" as="geometry" />
        </mxCell>
        <mxCell id="b8Esm8HIKwyEbSy9mFFW-23" value="&lt;u style=&quot;&quot;&gt;&lt;font style=&quot;font-size: 20px;&quot;&gt;MA&lt;/font&gt;&lt;/u&gt;" style="ellipse;whiteSpace=wrap;html=1;rounded=0;" parent="WIyWlLk6GJQsqaUBKTNV-1" vertex="1">
          <mxGeometry x="260" y="-1020" width="80" height="80" as="geometry" />
        </mxCell>
        <mxCell id="b8Esm8HIKwyEbSy9mFFW-25" value="&lt;font style=&quot;font-size: 20px;&quot;&gt;TEN&lt;/font&gt;" style="ellipse;whiteSpace=wrap;html=1;rounded=0;" parent="WIyWlLk6GJQsqaUBKTNV-1" vertex="1">
          <mxGeometry x="357.5" y="-1020" width="80" height="80" as="geometry" />
        </mxCell>
        <mxCell id="b8Esm8HIKwyEbSy9mFFW-29" value="" style="rounded=0;orthogonalLoop=1;jettySize=auto;html=1;endArrow=none;" parent="WIyWlLk6GJQsqaUBKTNV-1" source="b8Esm8HIKwyEbSy9mFFW-27" target="b8Esm8HIKwyEbSy9mFFW-28" edge="1">
          <mxGeometry relative="1" as="geometry" />
        </mxCell>
        <mxCell id="b8Esm8HIKwyEbSy9mFFW-32" value="" style="rounded=0;orthogonalLoop=1;jettySize=auto;html=1;endArrow=none;" parent="WIyWlLk6GJQsqaUBKTNV-1" source="b8Esm8HIKwyEbSy9mFFW-27" target="b8Esm8HIKwyEbSy9mFFW-31" edge="1">
          <mxGeometry relative="1" as="geometry" />
        </mxCell>
        <mxCell id="b8Esm8HIKwyEbSy9mFFW-34" value="" style="rounded=0;orthogonalLoop=1;jettySize=auto;html=1;endArrow=none;" parent="WIyWlLk6GJQsqaUBKTNV-1" source="b8Esm8HIKwyEbSy9mFFW-27" target="b8Esm8HIKwyEbSy9mFFW-33" edge="1">
          <mxGeometry relative="1" as="geometry" />
        </mxCell>
        <mxCell id="b8Esm8HIKwyEbSy9mFFW-36" value="" style="rounded=0;orthogonalLoop=1;jettySize=auto;html=1;endArrow=none;" parent="WIyWlLk6GJQsqaUBKTNV-1" source="b8Esm8HIKwyEbSy9mFFW-27" target="b8Esm8HIKwyEbSy9mFFW-35" edge="1">
          <mxGeometry relative="1" as="geometry" />
        </mxCell>
        <mxCell id="b8Esm8HIKwyEbSy9mFFW-38" value="" style="rounded=0;orthogonalLoop=1;jettySize=auto;html=1;endArrow=none;" parent="WIyWlLk6GJQsqaUBKTNV-1" source="b8Esm8HIKwyEbSy9mFFW-27" target="b8Esm8HIKwyEbSy9mFFW-37" edge="1">
          <mxGeometry relative="1" as="geometry" />
        </mxCell>
        <mxCell id="b8Esm8HIKwyEbSy9mFFW-40" value="" style="rounded=0;orthogonalLoop=1;jettySize=auto;html=1;endArrow=none;" parent="WIyWlLk6GJQsqaUBKTNV-1" source="b8Esm8HIKwyEbSy9mFFW-27" target="b8Esm8HIKwyEbSy9mFFW-39" edge="1">
          <mxGeometry relative="1" as="geometry" />
        </mxCell>
        <mxCell id="b8Esm8HIKwyEbSy9mFFW-42" value="" style="rounded=0;orthogonalLoop=1;jettySize=auto;html=1;endArrow=none;" parent="WIyWlLk6GJQsqaUBKTNV-1" source="b8Esm8HIKwyEbSy9mFFW-27" target="b8Esm8HIKwyEbSy9mFFW-41" edge="1">
          <mxGeometry relative="1" as="geometry" />
        </mxCell>
        <mxCell id="b8Esm8HIKwyEbSy9mFFW-45" value="" style="rounded=0;orthogonalLoop=1;jettySize=auto;html=1;endArrow=none;" parent="WIyWlLk6GJQsqaUBKTNV-1" source="b8Esm8HIKwyEbSy9mFFW-27" target="b8Esm8HIKwyEbSy9mFFW-44" edge="1">
          <mxGeometry relative="1" as="geometry" />
        </mxCell>
        <mxCell id="b8Esm8HIKwyEbSy9mFFW-27" value="&lt;font style=&quot;font-size: 20px;&quot;&gt;DE_TAI&lt;/font&gt;" style="rounded=0;whiteSpace=wrap;html=1;" parent="WIyWlLk6GJQsqaUBKTNV-1" vertex="1">
          <mxGeometry x="656" y="-950" width="120" height="60" as="geometry" />
        </mxCell>
        <mxCell id="b8Esm8HIKwyEbSy9mFFW-28" value="&lt;font style=&quot;font-size: 20px;&quot;&gt;STT&lt;/font&gt;" style="ellipse;whiteSpace=wrap;html=1;rounded=0;" parent="WIyWlLk6GJQsqaUBKTNV-1" vertex="1">
          <mxGeometry x="770" y="-1160" width="80" height="80" as="geometry" />
        </mxCell>
        <mxCell id="b8Esm8HIKwyEbSy9mFFW-31" value="&lt;u style=&quot;&quot;&gt;&lt;font style=&quot;font-size: 20px;&quot;&gt;MA&lt;/font&gt;&lt;/u&gt;" style="ellipse;whiteSpace=wrap;html=1;rounded=0;" parent="WIyWlLk6GJQsqaUBKTNV-1" vertex="1">
          <mxGeometry x="765" y="-870" width="80" height="80" as="geometry" />
        </mxCell>
        <mxCell id="b8Esm8HIKwyEbSy9mFFW-33" value="&lt;font style=&quot;font-size: 20px;&quot;&gt;TEN&lt;/font&gt;" style="ellipse;whiteSpace=wrap;html=1;rounded=0;" parent="WIyWlLk6GJQsqaUBKTNV-1" vertex="1">
          <mxGeometry x="827" y="-960" width="80" height="80" as="geometry" />
        </mxCell>
        <mxCell id="b8Esm8HIKwyEbSy9mFFW-35" value="&lt;font style=&quot;font-size: 20px;&quot;&gt;CAP_QUAN_LY&lt;/font&gt;" style="ellipse;whiteSpace=wrap;html=1;rounded=0;" parent="WIyWlLk6GJQsqaUBKTNV-1" vertex="1">
          <mxGeometry x="740" y="-1060" width="170" height="90" as="geometry" />
        </mxCell>
        <mxCell id="b8Esm8HIKwyEbSy9mFFW-37" value="&lt;font style=&quot;font-size: 20px;&quot;&gt;KINH_PHI&lt;/font&gt;" style="ellipse;whiteSpace=wrap;html=1;rounded=0;" parent="WIyWlLk6GJQsqaUBKTNV-1" vertex="1">
          <mxGeometry x="357.5" y="-1100" width="110" height="70" as="geometry" />
        </mxCell>
        <mxCell id="b8Esm8HIKwyEbSy9mFFW-39" value="&lt;font style=&quot;font-size: 20px;&quot;&gt;NGAY_BAT_DAU&lt;/font&gt;" style="ellipse;whiteSpace=wrap;html=1;rounded=0;" parent="WIyWlLk6GJQsqaUBKTNV-1" vertex="1">
          <mxGeometry x="430" y="-1180" width="170" height="110" as="geometry" />
        </mxCell>
        <mxCell id="b8Esm8HIKwyEbSy9mFFW-41" value="&lt;font style=&quot;font-size: 20px;&quot;&gt;NGAY_KET_THUC&lt;/font&gt;" style="ellipse;whiteSpace=wrap;html=1;rounded=0;" parent="WIyWlLk6GJQsqaUBKTNV-1" vertex="1">
          <mxGeometry x="587.5" y="-1120" width="188.5" height="90" as="geometry" />
        </mxCell>
        <mxCell id="b8Esm8HIKwyEbSy9mFFW-44" value="&lt;font style=&quot;font-size: 20px;&quot;&gt;CHU_DE&lt;/font&gt;" style="ellipse;whiteSpace=wrap;html=1;rounded=0;" parent="WIyWlLk6GJQsqaUBKTNV-1" vertex="1">
          <mxGeometry x="486" y="-923" width="94" height="80" as="geometry" />
        </mxCell>
        <mxCell id="b8Esm8HIKwyEbSy9mFFW-48" value="" style="rounded=0;orthogonalLoop=1;jettySize=auto;html=1;endArrow=none;" parent="WIyWlLk6GJQsqaUBKTNV-1" source="b8Esm8HIKwyEbSy9mFFW-46" target="b8Esm8HIKwyEbSy9mFFW-47" edge="1">
          <mxGeometry relative="1" as="geometry" />
        </mxCell>
        <mxCell id="b8Esm8HIKwyEbSy9mFFW-50" value="" style="rounded=0;orthogonalLoop=1;jettySize=auto;html=1;endArrow=none;" parent="WIyWlLk6GJQsqaUBKTNV-1" source="b8Esm8HIKwyEbSy9mFFW-46" target="b8Esm8HIKwyEbSy9mFFW-49" edge="1">
          <mxGeometry relative="1" as="geometry" />
        </mxCell>
        <mxCell id="b8Esm8HIKwyEbSy9mFFW-52" value="" style="rounded=0;orthogonalLoop=1;jettySize=auto;html=1;endArrow=none;" parent="WIyWlLk6GJQsqaUBKTNV-1" source="b8Esm8HIKwyEbSy9mFFW-46" target="b8Esm8HIKwyEbSy9mFFW-51" edge="1">
          <mxGeometry relative="1" as="geometry" />
        </mxCell>
        <mxCell id="b8Esm8HIKwyEbSy9mFFW-54" value="" style="rounded=0;orthogonalLoop=1;jettySize=auto;html=1;endArrow=none;" parent="WIyWlLk6GJQsqaUBKTNV-1" source="b8Esm8HIKwyEbSy9mFFW-46" target="b8Esm8HIKwyEbSy9mFFW-53" edge="1">
          <mxGeometry relative="1" as="geometry" />
        </mxCell>
        <mxCell id="b8Esm8HIKwyEbSy9mFFW-56" value="" style="rounded=0;orthogonalLoop=1;jettySize=auto;html=1;endArrow=none;" parent="WIyWlLk6GJQsqaUBKTNV-1" source="b8Esm8HIKwyEbSy9mFFW-46" target="b8Esm8HIKwyEbSy9mFFW-55" edge="1">
          <mxGeometry relative="1" as="geometry" />
        </mxCell>
        <mxCell id="b8Esm8HIKwyEbSy9mFFW-58" value="" style="rounded=0;orthogonalLoop=1;jettySize=auto;html=1;endArrow=none;" parent="WIyWlLk6GJQsqaUBKTNV-1" source="b8Esm8HIKwyEbSy9mFFW-46" target="b8Esm8HIKwyEbSy9mFFW-57" edge="1">
          <mxGeometry relative="1" as="geometry" />
        </mxCell>
        <mxCell id="b8Esm8HIKwyEbSy9mFFW-46" value="&lt;font style=&quot;font-size: 20px;&quot;&gt;NGUOI_THAN&lt;/font&gt;" style="rounded=0;whiteSpace=wrap;html=1;" parent="WIyWlLk6GJQsqaUBKTNV-1" vertex="1">
          <mxGeometry x="1040" y="-220" width="150" height="60" as="geometry" />
        </mxCell>
        <mxCell id="b8Esm8HIKwyEbSy9mFFW-47" value="&lt;u style=&quot;&quot;&gt;&lt;font style=&quot;font-size: 20px;&quot;&gt;STT&lt;/font&gt;&lt;/u&gt;" style="ellipse;whiteSpace=wrap;html=1;rounded=0;" parent="WIyWlLk6GJQsqaUBKTNV-1" vertex="1">
          <mxGeometry x="1140" y="-95" width="80" height="80" as="geometry" />
        </mxCell>
        <mxCell id="b8Esm8HIKwyEbSy9mFFW-49" value="&lt;font style=&quot;font-size: 20px;&quot;&gt;HO&lt;/font&gt;" style="ellipse;whiteSpace=wrap;html=1;rounded=0;" parent="WIyWlLk6GJQsqaUBKTNV-1" vertex="1">
          <mxGeometry x="965" y="-130" width="80" height="80" as="geometry" />
        </mxCell>
        <mxCell id="b8Esm8HIKwyEbSy9mFFW-51" value="&lt;font style=&quot;font-size: 20px;&quot;&gt;TENLOT&lt;/font&gt;" style="ellipse;whiteSpace=wrap;html=1;rounded=0;" parent="WIyWlLk6GJQsqaUBKTNV-1" vertex="1">
          <mxGeometry x="1220" y="-130" width="90" height="80" as="geometry" />
        </mxCell>
        <mxCell id="b8Esm8HIKwyEbSy9mFFW-53" value="&lt;font style=&quot;font-size: 20px;&quot;&gt;TEN&lt;/font&gt;" style="ellipse;whiteSpace=wrap;html=1;rounded=0;" parent="WIyWlLk6GJQsqaUBKTNV-1" vertex="1">
          <mxGeometry x="1051" y="-130" width="80" height="80" as="geometry" />
        </mxCell>
        <mxCell id="b8Esm8HIKwyEbSy9mFFW-55" value="&lt;font style=&quot;font-size: 20px;&quot;&gt;PHAI&lt;/font&gt;" style="ellipse;whiteSpace=wrap;html=1;rounded=0;" parent="WIyWlLk6GJQsqaUBKTNV-1" vertex="1">
          <mxGeometry x="1123.5" y="-312.5" width="80" height="80" as="geometry" />
        </mxCell>
        <mxCell id="b8Esm8HIKwyEbSy9mFFW-57" value="&lt;font style=&quot;font-size: 20px;&quot;&gt;NGSINH&lt;/font&gt;" style="ellipse;whiteSpace=wrap;html=1;rounded=0;" parent="WIyWlLk6GJQsqaUBKTNV-1" vertex="1">
          <mxGeometry x="1210" y="-216.25" width="80" height="80" as="geometry" />
        </mxCell>
        <mxCell id="b8Esm8HIKwyEbSy9mFFW-63" value="" style="rounded=0;orthogonalLoop=1;jettySize=auto;html=1;endArrow=none;" parent="WIyWlLk6GJQsqaUBKTNV-1" source="b8Esm8HIKwyEbSy9mFFW-61" target="b8Esm8HIKwyEbSy9mFFW-62" edge="1">
          <mxGeometry relative="1" as="geometry" />
        </mxCell>
        <mxCell id="b8Esm8HIKwyEbSy9mFFW-67" value="" style="rounded=0;orthogonalLoop=1;jettySize=auto;html=1;endArrow=none;" parent="WIyWlLk6GJQsqaUBKTNV-1" source="b8Esm8HIKwyEbSy9mFFW-61" target="b8Esm8HIKwyEbSy9mFFW-66" edge="1">
          <mxGeometry relative="1" as="geometry" />
        </mxCell>
        <mxCell id="b8Esm8HIKwyEbSy9mFFW-69" value="" style="rounded=0;orthogonalLoop=1;jettySize=auto;html=1;endArrow=none;" parent="WIyWlLk6GJQsqaUBKTNV-1" source="b8Esm8HIKwyEbSy9mFFW-61" target="b8Esm8HIKwyEbSy9mFFW-68" edge="1">
          <mxGeometry relative="1" as="geometry" />
        </mxCell>
        <mxCell id="b8Esm8HIKwyEbSy9mFFW-71" value="" style="rounded=0;orthogonalLoop=1;jettySize=auto;html=1;endArrow=none;" parent="WIyWlLk6GJQsqaUBKTNV-1" source="b8Esm8HIKwyEbSy9mFFW-61" target="b8Esm8HIKwyEbSy9mFFW-70" edge="1">
          <mxGeometry relative="1" as="geometry">
            <Array as="points" />
          </mxGeometry>
        </mxCell>
        <mxCell id="b8Esm8HIKwyEbSy9mFFW-62" value="&lt;u style=&quot;&quot;&gt;&lt;font style=&quot;font-size: 20px;&quot;&gt;STT_CONGVIEC&lt;/font&gt;&lt;/u&gt;" style="ellipse;whiteSpace=wrap;html=1;rounded=0;" parent="WIyWlLk6GJQsqaUBKTNV-1" vertex="1">
          <mxGeometry x="160" y="-698" width="176" height="100" as="geometry" />
        </mxCell>
        <mxCell id="b8Esm8HIKwyEbSy9mFFW-66" value="&lt;font style=&quot;font-size: 20px;&quot;&gt;TEN&lt;/font&gt;" style="ellipse;whiteSpace=wrap;html=1;rounded=0;" parent="WIyWlLk6GJQsqaUBKTNV-1" vertex="1">
          <mxGeometry x="420" y="-775" width="80" height="80" as="geometry" />
        </mxCell>
        <mxCell id="b8Esm8HIKwyEbSy9mFFW-68" value="&lt;font style=&quot;font-size: 20px;&quot;&gt;NGAY_BAT_DAU&lt;/font&gt;" style="ellipse;whiteSpace=wrap;html=1;rounded=0;" parent="WIyWlLk6GJQsqaUBKTNV-1" vertex="1">
          <mxGeometry x="300" y="-590" width="190" height="100" as="geometry" />
        </mxCell>
        <mxCell id="b8Esm8HIKwyEbSy9mFFW-70" value="&lt;font style=&quot;font-size: 20px;&quot;&gt;NGAY_KET_THUC&lt;/font&gt;" style="ellipse;whiteSpace=wrap;html=1;rounded=0;" parent="WIyWlLk6GJQsqaUBKTNV-1" vertex="1">
          <mxGeometry x="441" y="-670" width="196" height="100" as="geometry" />
        </mxCell>
        <mxCell id="ohicSznDH1DP1seRyiTe-16" value="&lt;font style=&quot;font-size: 20px;&quot;&gt;THONG_TIN_DIA_CHI&lt;/font&gt;" style="rhombus;whiteSpace=wrap;html=1;" parent="WIyWlLk6GJQsqaUBKTNV-1" vertex="1">
          <mxGeometry x="209" y="-493" width="266" height="130" as="geometry" />
        </mxCell>
        <mxCell id="ohicSznDH1DP1seRyiTe-19" value="&lt;font style=&quot;font-size: 20px;&quot;&gt;THONG_TIN_NGUOI_THAN&lt;/font&gt;" style="rhombus;whiteSpace=wrap;html=1;" parent="WIyWlLk6GJQsqaUBKTNV-1" vertex="1">
          <mxGeometry x="833.5" y="-372.5" width="304" height="130" as="geometry" />
        </mxCell>
        <mxCell id="ohicSznDH1DP1seRyiTe-21" value="&lt;font style=&quot;font-size: 20px;&quot;&gt;THONG_TIN_SDT&lt;/font&gt;" style="rhombus;whiteSpace=wrap;html=1;" parent="WIyWlLk6GJQsqaUBKTNV-1" vertex="1">
          <mxGeometry x="785" y="-232.5" width="200" height="112.5" as="geometry" />
        </mxCell>
        <mxCell id="ohicSznDH1DP1seRyiTe-27" value="" style="endArrow=none;html=1;rounded=0;exitX=0.5;exitY=0;exitDx=0;exitDy=0;entryX=1;entryY=1;entryDx=0;entryDy=0;" parent="WIyWlLk6GJQsqaUBKTNV-1" source="b8Esm8HIKwyEbSy9mFFW-11" target="ohicSznDH1DP1seRyiTe-16" edge="1">
          <mxGeometry width="50" height="50" relative="1" as="geometry">
            <mxPoint x="23.83" y="447.5" as="sourcePoint" />
            <mxPoint x="64" y="468" as="targetPoint" />
          </mxGeometry>
        </mxCell>
        <mxCell id="ohicSznDH1DP1seRyiTe-32" value="&lt;font style=&quot;font-size: 20px;&quot;&gt;(1, 1)&lt;/font&gt;" style="edgeLabel;html=1;align=center;verticalAlign=middle;resizable=0;points=[];" parent="ohicSznDH1DP1seRyiTe-27" vertex="1" connectable="0">
          <mxGeometry x="0.1263" y="2" relative="1" as="geometry">
            <mxPoint as="offset" />
          </mxGeometry>
        </mxCell>
        <mxCell id="ohicSznDH1DP1seRyiTe-28" value="" style="endArrow=none;html=1;rounded=0;entryX=0.75;entryY=0;entryDx=0;entryDy=0;exitX=0.5;exitY=1;exitDx=0;exitDy=0;" parent="WIyWlLk6GJQsqaUBKTNV-1" source="ohicSznDH1DP1seRyiTe-112" target="CTtwoH4sy8VoPbu_Y0XK-0" edge="1">
          <mxGeometry width="50" height="50" relative="1" as="geometry">
            <mxPoint x="792.4394666576536" y="516.4030655355391" as="sourcePoint" />
            <mxPoint x="300" y="250" as="targetPoint" />
          </mxGeometry>
        </mxCell>
        <mxCell id="UTOXGBRC5Ul77BO6yHyL-174" value="&lt;font style=&quot;font-size: 20px;&quot;&gt;(0, 1)&lt;/font&gt;" style="edgeLabel;html=1;align=center;verticalAlign=middle;resizable=0;points=[];" parent="ohicSznDH1DP1seRyiTe-28" vertex="1" connectable="0">
          <mxGeometry x="-0.237" y="3" relative="1" as="geometry">
            <mxPoint as="offset" />
          </mxGeometry>
        </mxCell>
        <mxCell id="ohicSznDH1DP1seRyiTe-29" value="" style="endArrow=none;html=1;rounded=0;entryX=1;entryY=1;entryDx=0;entryDy=0;exitX=0.36;exitY=0.154;exitDx=0;exitDy=0;exitPerimeter=0;" parent="WIyWlLk6GJQsqaUBKTNV-1" source="ohicSznDH1DP1seRyiTe-19" target="CTtwoH4sy8VoPbu_Y0XK-0" edge="1">
          <mxGeometry width="50" height="50" relative="1" as="geometry">
            <mxPoint x="330" y="500" as="sourcePoint" />
            <mxPoint x="380" y="450" as="targetPoint" />
          </mxGeometry>
        </mxCell>
        <mxCell id="ohicSznDH1DP1seRyiTe-38" value="&lt;font style=&quot;font-size: 20px;&quot;&gt;(0, n)&lt;/font&gt;" style="edgeLabel;html=1;align=center;verticalAlign=middle;resizable=0;points=[];" parent="ohicSznDH1DP1seRyiTe-29" vertex="1" connectable="0">
          <mxGeometry x="-0.0602" y="-2" relative="1" as="geometry">
            <mxPoint x="-2" as="offset" />
          </mxGeometry>
        </mxCell>
        <mxCell id="ohicSznDH1DP1seRyiTe-30" value="" style="endArrow=none;html=1;rounded=0;entryX=0;entryY=0.5;entryDx=0;entryDy=0;exitX=1;exitY=0;exitDx=0;exitDy=0;" parent="WIyWlLk6GJQsqaUBKTNV-1" source="ohicSznDH1DP1seRyiTe-16" target="CTtwoH4sy8VoPbu_Y0XK-0" edge="1">
          <mxGeometry width="50" height="50" relative="1" as="geometry">
            <mxPoint x="330" y="500" as="sourcePoint" />
            <mxPoint x="380" y="450" as="targetPoint" />
          </mxGeometry>
        </mxCell>
        <mxCell id="ohicSznDH1DP1seRyiTe-31" value="&lt;font style=&quot;&quot;&gt;&lt;font style=&quot;font-size: 20px;&quot;&gt;(1, 1)&lt;/font&gt;&lt;br&gt;&lt;/font&gt;" style="edgeLabel;html=1;align=center;verticalAlign=middle;resizable=0;points=[];" parent="ohicSznDH1DP1seRyiTe-30" vertex="1" connectable="0">
          <mxGeometry x="0.048" y="2" relative="1" as="geometry">
            <mxPoint as="offset" />
          </mxGeometry>
        </mxCell>
        <mxCell id="ohicSznDH1DP1seRyiTe-33" value="" style="endArrow=none;html=1;rounded=0;exitX=0;exitY=0;exitDx=0;exitDy=0;entryX=0.85;entryY=1.028;entryDx=0;entryDy=0;entryPerimeter=0;" parent="WIyWlLk6GJQsqaUBKTNV-1" source="ohicSznDH1DP1seRyiTe-21" target="CTtwoH4sy8VoPbu_Y0XK-0" edge="1">
          <mxGeometry width="50" height="50" relative="1" as="geometry">
            <mxPoint x="194" y="410" as="sourcePoint" />
            <mxPoint x="310" y="300" as="targetPoint" />
          </mxGeometry>
        </mxCell>
        <mxCell id="ohicSznDH1DP1seRyiTe-34" value="&lt;font style=&quot;&quot;&gt;&lt;font style=&quot;font-size: 20px;&quot;&gt;(1, n)&lt;/font&gt;&lt;br&gt;&lt;/font&gt;" style="edgeLabel;html=1;align=center;verticalAlign=middle;resizable=0;points=[];" parent="ohicSznDH1DP1seRyiTe-33" vertex="1" connectable="0">
          <mxGeometry x="0.048" y="2" relative="1" as="geometry">
            <mxPoint y="3" as="offset" />
          </mxGeometry>
        </mxCell>
        <mxCell id="ohicSznDH1DP1seRyiTe-35" value="" style="endArrow=none;html=1;rounded=0;entryX=0.5;entryY=1;entryDx=0;entryDy=0;exitX=1;exitY=0;exitDx=0;exitDy=0;" parent="WIyWlLk6GJQsqaUBKTNV-1" source="b8Esm8HIKwyEbSy9mFFW-6" target="ohicSznDH1DP1seRyiTe-21" edge="1">
          <mxGeometry width="50" height="50" relative="1" as="geometry">
            <mxPoint x="310" y="650" as="sourcePoint" />
            <mxPoint x="360" y="600" as="targetPoint" />
          </mxGeometry>
        </mxCell>
        <mxCell id="ohicSznDH1DP1seRyiTe-36" value="&lt;font style=&quot;font-size: 20px;&quot;&gt;(1, 1)&lt;/font&gt;" style="edgeLabel;html=1;align=center;verticalAlign=middle;resizable=0;points=[];" parent="ohicSznDH1DP1seRyiTe-35" vertex="1" connectable="0">
          <mxGeometry x="0.1931" relative="1" as="geometry">
            <mxPoint as="offset" />
          </mxGeometry>
        </mxCell>
        <mxCell id="ohicSznDH1DP1seRyiTe-39" value="" style="endArrow=none;html=1;rounded=0;entryX=1;entryY=1;entryDx=0;entryDy=0;exitX=0.5;exitY=0;exitDx=0;exitDy=0;" parent="WIyWlLk6GJQsqaUBKTNV-1" source="b8Esm8HIKwyEbSy9mFFW-46" target="ohicSznDH1DP1seRyiTe-19" edge="1">
          <mxGeometry width="50" height="50" relative="1" as="geometry">
            <mxPoint x="-20" y="420" as="sourcePoint" />
            <mxPoint x="30" y="370" as="targetPoint" />
          </mxGeometry>
        </mxCell>
        <mxCell id="ohicSznDH1DP1seRyiTe-40" value="&lt;font style=&quot;font-size: 20px;&quot;&gt;(1, 1)&lt;/font&gt;" style="edgeLabel;html=1;align=center;verticalAlign=middle;resizable=0;points=[];" parent="ohicSznDH1DP1seRyiTe-39" vertex="1" connectable="0">
          <mxGeometry x="-0.176" y="1" relative="1" as="geometry">
            <mxPoint as="offset" />
          </mxGeometry>
        </mxCell>
        <mxCell id="ohicSznDH1DP1seRyiTe-41" value="&lt;font style=&quot;font-size: 20px;&quot;&gt;THUOC&lt;/font&gt;" style="rhombus;whiteSpace=wrap;html=1;" parent="WIyWlLk6GJQsqaUBKTNV-1" vertex="1">
          <mxGeometry x="806.5" y="-1240" width="103.5" height="80" as="geometry" />
        </mxCell>
        <mxCell id="ohicSznDH1DP1seRyiTe-43" value="" style="endArrow=none;html=1;rounded=0;entryX=1;entryY=0.5;entryDx=0;entryDy=0;exitX=0;exitY=0.5;exitDx=0;exitDy=0;" parent="WIyWlLk6GJQsqaUBKTNV-1" source="ohicSznDH1DP1seRyiTe-41" target="b8Esm8HIKwyEbSy9mFFW-0" edge="1">
          <mxGeometry width="50" height="50" relative="1" as="geometry">
            <mxPoint x="1230" y="190" as="sourcePoint" />
            <mxPoint x="1280" y="140" as="targetPoint" />
          </mxGeometry>
        </mxCell>
        <mxCell id="ohicSznDH1DP1seRyiTe-46" value="&lt;font style=&quot;font-size: 20px;&quot;&gt;(0, n)&lt;/font&gt;" style="edgeLabel;html=1;align=center;verticalAlign=middle;resizable=0;points=[];" parent="ohicSznDH1DP1seRyiTe-43" vertex="1" connectable="0">
          <mxGeometry x="0.0422" relative="1" as="geometry">
            <mxPoint as="offset" />
          </mxGeometry>
        </mxCell>
        <mxCell id="ohicSznDH1DP1seRyiTe-44" value="" style="endArrow=none;html=1;rounded=0;entryX=0.5;entryY=1;entryDx=0;entryDy=0;exitX=0.25;exitY=0;exitDx=0;exitDy=0;" parent="WIyWlLk6GJQsqaUBKTNV-1" source="CTtwoH4sy8VoPbu_Y0XK-21" target="ohicSznDH1DP1seRyiTe-41" edge="1">
          <mxGeometry width="50" height="50" relative="1" as="geometry">
            <mxPoint x="1150" y="300" as="sourcePoint" />
            <mxPoint x="1200" y="250" as="targetPoint" />
          </mxGeometry>
        </mxCell>
        <mxCell id="ohicSznDH1DP1seRyiTe-45" value="&lt;font style=&quot;font-size: 20px;&quot;&gt;(0, 1)&lt;/font&gt;" style="edgeLabel;html=1;align=center;verticalAlign=middle;resizable=0;points=[];" parent="ohicSznDH1DP1seRyiTe-44" vertex="1" connectable="0">
          <mxGeometry x="0.1354" y="2" relative="1" as="geometry">
            <mxPoint as="offset" />
          </mxGeometry>
        </mxCell>
        <mxCell id="ohicSznDH1DP1seRyiTe-47" value="&lt;font style=&quot;font-size: 20px;&quot;&gt;CO&lt;/font&gt;" style="rhombus;whiteSpace=wrap;html=1;" parent="WIyWlLk6GJQsqaUBKTNV-1" vertex="1">
          <mxGeometry x="454" y="-1010" width="80" height="80" as="geometry" />
        </mxCell>
        <mxCell id="ohicSznDH1DP1seRyiTe-49" value="" style="endArrow=none;html=1;rounded=0;entryX=1;entryY=0.75;entryDx=0;entryDy=0;exitX=0;exitY=1;exitDx=0;exitDy=0;" parent="WIyWlLk6GJQsqaUBKTNV-1" source="ohicSznDH1DP1seRyiTe-47" target="b8Esm8HIKwyEbSy9mFFW-22" edge="1">
          <mxGeometry width="50" height="50" relative="1" as="geometry">
            <mxPoint x="474" y="-990" as="sourcePoint" />
            <mxPoint x="280" y="-870" as="targetPoint" />
          </mxGeometry>
        </mxCell>
        <mxCell id="ohicSznDH1DP1seRyiTe-51" value="&lt;font style=&quot;font-size: 20px;&quot;&gt;(0, n)&lt;/font&gt;" style="edgeLabel;html=1;align=center;verticalAlign=middle;resizable=0;points=[];" parent="ohicSznDH1DP1seRyiTe-49" vertex="1" connectable="0">
          <mxGeometry x="0.2143" y="4" relative="1" as="geometry">
            <mxPoint x="1" as="offset" />
          </mxGeometry>
        </mxCell>
        <mxCell id="ohicSznDH1DP1seRyiTe-50" value="" style="endArrow=none;html=1;rounded=0;entryX=1;entryY=1;entryDx=0;entryDy=0;exitX=0;exitY=0.333;exitDx=0;exitDy=0;exitPerimeter=0;" parent="WIyWlLk6GJQsqaUBKTNV-1" source="b8Esm8HIKwyEbSy9mFFW-27" target="ohicSznDH1DP1seRyiTe-47" edge="1">
          <mxGeometry width="50" height="50" relative="1" as="geometry">
            <mxPoint x="660" y="-70" as="sourcePoint" />
            <mxPoint x="710" y="-120" as="targetPoint" />
          </mxGeometry>
        </mxCell>
        <mxCell id="ohicSznDH1DP1seRyiTe-52" value="&lt;font style=&quot;font-size: 20px;&quot;&gt;(1, 1)&lt;/font&gt;" style="edgeLabel;html=1;align=center;verticalAlign=middle;resizable=0;points=[];" parent="ohicSznDH1DP1seRyiTe-50" vertex="1" connectable="0">
          <mxGeometry x="0.0507" y="-1" relative="1" as="geometry">
            <mxPoint as="offset" />
          </mxGeometry>
        </mxCell>
        <mxCell id="ohicSznDH1DP1seRyiTe-54" value="" style="endArrow=none;html=1;rounded=0;" parent="WIyWlLk6GJQsqaUBKTNV-1" source="UTOXGBRC5Ul77BO6yHyL-3" edge="1">
          <mxGeometry width="50" height="50" relative="1" as="geometry">
            <mxPoint x="510" y="100" as="sourcePoint" />
            <mxPoint x="740" y="-485" as="targetPoint" />
          </mxGeometry>
        </mxCell>
        <mxCell id="ohicSznDH1DP1seRyiTe-56" value="&lt;font style=&quot;font-size: 20px;&quot;&gt;(1, n)&lt;/font&gt;" style="edgeLabel;html=1;align=center;verticalAlign=middle;resizable=0;points=[];" parent="ohicSznDH1DP1seRyiTe-54" vertex="1" connectable="0">
          <mxGeometry x="-0.0533" y="1" relative="1" as="geometry">
            <mxPoint as="offset" />
          </mxGeometry>
        </mxCell>
        <mxCell id="ohicSznDH1DP1seRyiTe-55" value="" style="endArrow=none;html=1;rounded=0;exitX=0.5;exitY=1;exitDx=0;exitDy=0;" parent="WIyWlLk6GJQsqaUBKTNV-1" source="b8Esm8HIKwyEbSy9mFFW-27" target="UTOXGBRC5Ul77BO6yHyL-3" edge="1">
          <mxGeometry width="50" height="50" relative="1" as="geometry">
            <mxPoint x="760" y="20" as="sourcePoint" />
            <mxPoint x="680" y="40" as="targetPoint" />
          </mxGeometry>
        </mxCell>
        <mxCell id="ohicSznDH1DP1seRyiTe-57" value="&lt;font style=&quot;font-size: 20px;&quot;&gt;(0, n)&lt;/font&gt;" style="edgeLabel;html=1;align=center;verticalAlign=middle;resizable=0;points=[];" parent="ohicSznDH1DP1seRyiTe-55" vertex="1" connectable="0">
          <mxGeometry x="0.0918" relative="1" as="geometry">
            <mxPoint as="offset" />
          </mxGeometry>
        </mxCell>
        <mxCell id="ohicSznDH1DP1seRyiTe-59" value="&lt;font style=&quot;font-size: 20px;&quot;&gt;THUOC&lt;/font&gt;" style="rhombus;whiteSpace=wrap;html=1;" parent="WIyWlLk6GJQsqaUBKTNV-1" vertex="1">
          <mxGeometry x="990" y="-900" width="110" height="80" as="geometry" />
        </mxCell>
        <mxCell id="ohicSznDH1DP1seRyiTe-61" value="" style="endArrow=none;html=1;rounded=0;exitX=0.5;exitY=0;exitDx=0;exitDy=0;entryX=1;entryY=1;entryDx=0;entryDy=0;" parent="WIyWlLk6GJQsqaUBKTNV-1" source="ohicSznDH1DP1seRyiTe-59" target="CTtwoH4sy8VoPbu_Y0XK-21" edge="1">
          <mxGeometry width="50" height="50" relative="1" as="geometry">
            <mxPoint x="1080" y="470" as="sourcePoint" />
            <mxPoint x="970" y="-910" as="targetPoint" />
          </mxGeometry>
        </mxCell>
        <mxCell id="ohicSznDH1DP1seRyiTe-64" value="&lt;font style=&quot;font-size: 20px;&quot;&gt;(1, n)&lt;/font&gt;" style="edgeLabel;html=1;align=center;verticalAlign=middle;resizable=0;points=[];" parent="ohicSznDH1DP1seRyiTe-61" vertex="1" connectable="0">
          <mxGeometry x="-0.0409" relative="1" as="geometry">
            <mxPoint as="offset" />
          </mxGeometry>
        </mxCell>
        <mxCell id="ohicSznDH1DP1seRyiTe-62" value="" style="endArrow=none;html=1;rounded=0;entryX=0.5;entryY=1;entryDx=0;entryDy=0;exitX=0.25;exitY=0;exitDx=0;exitDy=0;" parent="WIyWlLk6GJQsqaUBKTNV-1" source="CTtwoH4sy8VoPbu_Y0XK-44" target="ohicSznDH1DP1seRyiTe-59" edge="1">
          <mxGeometry width="50" height="50" relative="1" as="geometry">
            <mxPoint x="842.5" y="650" as="sourcePoint" />
            <mxPoint x="633" y="-1390" as="targetPoint" />
          </mxGeometry>
        </mxCell>
        <mxCell id="ohicSznDH1DP1seRyiTe-63" value="&lt;font style=&quot;font-size: 20px;&quot;&gt;(1, 1)&lt;/font&gt;" style="edgeLabel;html=1;align=center;verticalAlign=middle;resizable=0;points=[];" parent="ohicSznDH1DP1seRyiTe-62" vertex="1" connectable="0">
          <mxGeometry x="0.0682" y="1" relative="1" as="geometry">
            <mxPoint as="offset" />
          </mxGeometry>
        </mxCell>
        <mxCell id="ohicSznDH1DP1seRyiTe-72" value="" style="endArrow=none;html=1;rounded=0;exitX=0.5;exitY=0;exitDx=0;exitDy=0;entryX=0.25;entryY=1;entryDx=0;entryDy=0;" parent="WIyWlLk6GJQsqaUBKTNV-1" source="ohicSznDH1DP1seRyiTe-112" target="CTtwoH4sy8VoPbu_Y0XK-21" edge="1">
          <mxGeometry width="50" height="50" relative="1" as="geometry">
            <mxPoint x="887" y="537.5" as="sourcePoint" />
            <mxPoint x="960" y="350" as="targetPoint" />
          </mxGeometry>
        </mxCell>
        <mxCell id="UTOXGBRC5Ul77BO6yHyL-175" value="&lt;font style=&quot;font-size: 20px;&quot;&gt;(1, n)&lt;/font&gt;" style="edgeLabel;html=1;align=center;verticalAlign=middle;resizable=0;points=[];" parent="ohicSznDH1DP1seRyiTe-72" vertex="1" connectable="0">
          <mxGeometry x="-0.1395" y="5" relative="1" as="geometry">
            <mxPoint as="offset" />
          </mxGeometry>
        </mxCell>
        <mxCell id="ohicSznDH1DP1seRyiTe-78" value="&lt;font style=&quot;font-size: 20px;&quot;&gt;LAM_VIEC&lt;/font&gt;" style="rhombus;whiteSpace=wrap;html=1;" parent="WIyWlLk6GJQsqaUBKTNV-1" vertex="1">
          <mxGeometry x="1035" y="-530" width="128.5" height="120" as="geometry" />
        </mxCell>
        <mxCell id="ohicSznDH1DP1seRyiTe-79" value="" style="endArrow=none;html=1;rounded=0;exitX=0.5;exitY=1;exitDx=0;exitDy=0;entryX=1;entryY=0.25;entryDx=0;entryDy=0;" parent="WIyWlLk6GJQsqaUBKTNV-1" source="ohicSznDH1DP1seRyiTe-78" target="CTtwoH4sy8VoPbu_Y0XK-0" edge="1">
          <mxGeometry width="50" height="50" relative="1" as="geometry">
            <mxPoint x="660" y="440" as="sourcePoint" />
            <mxPoint x="400" y="370" as="targetPoint" />
          </mxGeometry>
        </mxCell>
        <mxCell id="ohicSznDH1DP1seRyiTe-81" value="&lt;font style=&quot;font-size: 20px;&quot;&gt;(0, 1)&lt;/font&gt;" style="edgeLabel;html=1;align=center;verticalAlign=middle;resizable=0;points=[];" parent="ohicSznDH1DP1seRyiTe-79" vertex="1" connectable="0">
          <mxGeometry x="-0.0524" y="5" relative="1" as="geometry">
            <mxPoint x="1" as="offset" />
          </mxGeometry>
        </mxCell>
        <mxCell id="ohicSznDH1DP1seRyiTe-80" value="" style="endArrow=none;html=1;rounded=0;entryX=1;entryY=0;entryDx=0;entryDy=0;exitX=0.25;exitY=1;exitDx=0;exitDy=0;" parent="WIyWlLk6GJQsqaUBKTNV-1" source="CTtwoH4sy8VoPbu_Y0XK-44" target="ohicSznDH1DP1seRyiTe-78" edge="1">
          <mxGeometry width="50" height="50" relative="1" as="geometry">
            <mxPoint x="970" y="580" as="sourcePoint" />
            <mxPoint x="1020" y="530" as="targetPoint" />
          </mxGeometry>
        </mxCell>
        <mxCell id="ohicSznDH1DP1seRyiTe-82" value="&lt;font style=&quot;font-size: 20px;&quot;&gt;(1, n)&lt;/font&gt;" style="edgeLabel;html=1;align=center;verticalAlign=middle;resizable=0;points=[];" parent="ohicSznDH1DP1seRyiTe-80" vertex="1" connectable="0">
          <mxGeometry x="0.0137" y="-4" relative="1" as="geometry">
            <mxPoint y="-1" as="offset" />
          </mxGeometry>
        </mxCell>
        <mxCell id="ohicSznDH1DP1seRyiTe-86" value="&lt;font style=&quot;font-size: 20px;&quot;&gt;BAO_GOM&lt;/font&gt;" style="rhombus;whiteSpace=wrap;html=1;" parent="WIyWlLk6GJQsqaUBKTNV-1" vertex="1">
          <mxGeometry x="437.5" y="-845" width="125" height="80" as="geometry" />
        </mxCell>
        <mxCell id="ohicSznDH1DP1seRyiTe-88" value="" style="endArrow=none;html=1;rounded=0;entryX=0;entryY=0.5;entryDx=0;entryDy=0;exitX=1;exitY=0.25;exitDx=0;exitDy=0;" parent="WIyWlLk6GJQsqaUBKTNV-1" source="b8Esm8HIKwyEbSy9mFFW-61" target="ohicSznDH1DP1seRyiTe-86" edge="1">
          <mxGeometry width="50" height="50" relative="1" as="geometry">
            <mxPoint x="454" y="-525" as="sourcePoint" />
            <mxPoint x="570" y="-80" as="targetPoint" />
          </mxGeometry>
        </mxCell>
        <mxCell id="ohicSznDH1DP1seRyiTe-90" value="&lt;font style=&quot;font-size: 20px;&quot;&gt;(1, 1)&lt;/font&gt;" style="edgeLabel;html=1;align=center;verticalAlign=middle;resizable=0;points=[];" parent="ohicSznDH1DP1seRyiTe-88" vertex="1" connectable="0">
          <mxGeometry x="-0.175" y="-1" relative="1" as="geometry">
            <mxPoint as="offset" />
          </mxGeometry>
        </mxCell>
        <mxCell id="ohicSznDH1DP1seRyiTe-106" value="&lt;div style=&quot;text-align: justify;&quot;&gt;&lt;span style=&quot;font-size: 20px; background-color: initial;&quot;&gt;LA_TRUONG_BO_MON&lt;/span&gt;&lt;/div&gt;" style="rhombus;whiteSpace=wrap;html=1;" parent="WIyWlLk6GJQsqaUBKTNV-1" vertex="1">
          <mxGeometry x="1106" y="-425" width="270" height="115" as="geometry" />
        </mxCell>
        <mxCell id="ohicSznDH1DP1seRyiTe-107" value="" style="endArrow=none;html=1;rounded=0;exitX=0;exitY=0.5;exitDx=0;exitDy=0;entryX=1;entryY=0;entryDx=0;entryDy=0;" parent="WIyWlLk6GJQsqaUBKTNV-1" source="ohicSznDH1DP1seRyiTe-113" target="CTtwoH4sy8VoPbu_Y0XK-0" edge="1">
          <mxGeometry width="50" height="50" relative="1" as="geometry">
            <mxPoint x="450" y="660" as="sourcePoint" />
            <mxPoint x="410" y="330" as="targetPoint" />
          </mxGeometry>
        </mxCell>
        <mxCell id="ohicSznDH1DP1seRyiTe-110" value="&lt;font style=&quot;font-size: 20px;&quot;&gt;(0, 1)&lt;/font&gt;" style="edgeLabel;html=1;align=center;verticalAlign=middle;resizable=0;points=[];" parent="ohicSznDH1DP1seRyiTe-107" vertex="1" connectable="0">
          <mxGeometry x="-0.1063" y="-1" relative="1" as="geometry">
            <mxPoint as="offset" />
          </mxGeometry>
        </mxCell>
        <mxCell id="ohicSznDH1DP1seRyiTe-108" value="" style="endArrow=none;html=1;rounded=0;entryX=0.5;entryY=1;entryDx=0;entryDy=0;" parent="WIyWlLk6GJQsqaUBKTNV-1" source="ohicSznDH1DP1seRyiTe-106" target="CTtwoH4sy8VoPbu_Y0XK-44" edge="1">
          <mxGeometry width="50" height="50" relative="1" as="geometry">
            <mxPoint x="950" y="610" as="sourcePoint" />
            <mxPoint x="1000" y="560" as="targetPoint" />
          </mxGeometry>
        </mxCell>
        <mxCell id="ohicSznDH1DP1seRyiTe-111" value="&lt;font style=&quot;font-size: 20px;&quot;&gt;(0, 1)&lt;/font&gt;" style="edgeLabel;html=1;align=center;verticalAlign=middle;resizable=0;points=[];" parent="ohicSznDH1DP1seRyiTe-108" vertex="1" connectable="0">
          <mxGeometry x="-0.0961" y="1" relative="1" as="geometry">
            <mxPoint as="offset" />
          </mxGeometry>
        </mxCell>
        <mxCell id="ohicSznDH1DP1seRyiTe-112" value="&lt;font style=&quot;font-size: 20px;&quot;&gt;LAM_VIEC&lt;/font&gt;" style="rhombus;whiteSpace=wrap;html=1;" parent="WIyWlLk6GJQsqaUBKTNV-1" vertex="1">
          <mxGeometry x="838" y="-790" width="127" height="120" as="geometry" />
        </mxCell>
        <mxCell id="ohicSznDH1DP1seRyiTe-113" value="&lt;font style=&quot;font-size: 20px;&quot;&gt;LA_TRUONG_KHOA&lt;/font&gt;" style="rhombus;whiteSpace=wrap;html=1;" parent="WIyWlLk6GJQsqaUBKTNV-1" vertex="1">
          <mxGeometry x="861.5" y="-610" width="230" height="140" as="geometry" />
        </mxCell>
        <mxCell id="ohicSznDH1DP1seRyiTe-114" value="" style="endArrow=none;html=1;rounded=0;exitX=0.5;exitY=0;exitDx=0;exitDy=0;entryX=0.5;entryY=1;entryDx=0;entryDy=0;" parent="WIyWlLk6GJQsqaUBKTNV-1" source="ohicSznDH1DP1seRyiTe-113" target="CTtwoH4sy8VoPbu_Y0XK-21" edge="1">
          <mxGeometry width="50" height="50" relative="1" as="geometry">
            <mxPoint x="809" y="567.5" as="sourcePoint" />
            <mxPoint x="1160" y="530.5" as="targetPoint" />
          </mxGeometry>
        </mxCell>
        <mxCell id="ohicSznDH1DP1seRyiTe-115" value="&lt;font style=&quot;font-size: 20px;&quot;&gt;(0, 1)&lt;/font&gt;" style="edgeLabel;html=1;align=center;verticalAlign=middle;resizable=0;points=[];" parent="ohicSznDH1DP1seRyiTe-114" vertex="1" connectable="0">
          <mxGeometry x="-0.0961" y="1" relative="1" as="geometry">
            <mxPoint as="offset" />
          </mxGeometry>
        </mxCell>
        <mxCell id="ohicSznDH1DP1seRyiTe-116" value="" style="endArrow=none;html=1;rounded=0;entryX=1;entryY=0.75;entryDx=0;entryDy=0;exitX=0;exitY=0.5;exitDx=0;exitDy=0;" parent="WIyWlLk6GJQsqaUBKTNV-1" source="ohicSznDH1DP1seRyiTe-106" target="CTtwoH4sy8VoPbu_Y0XK-0" edge="1">
          <mxGeometry width="50" height="50" relative="1" as="geometry">
            <mxPoint x="567" y="753" as="sourcePoint" />
            <mxPoint x="394" y="320" as="targetPoint" />
          </mxGeometry>
        </mxCell>
        <mxCell id="ohicSznDH1DP1seRyiTe-117" value="&lt;font style=&quot;font-size: 20px;&quot;&gt;(0, 1)&lt;/font&gt;" style="edgeLabel;html=1;align=center;verticalAlign=middle;resizable=0;points=[];" parent="ohicSznDH1DP1seRyiTe-116" vertex="1" connectable="0">
          <mxGeometry x="-0.1063" y="-1" relative="1" as="geometry">
            <mxPoint as="offset" />
          </mxGeometry>
        </mxCell>
        <mxCell id="UTOXGBRC5Ul77BO6yHyL-5" value="&lt;u style=&quot;&quot;&gt;&lt;font style=&quot;font-size: 20px;&quot;&gt;STT&lt;/font&gt;&lt;/u&gt;" style="ellipse;whiteSpace=wrap;html=1;rounded=0;" parent="WIyWlLk6GJQsqaUBKTNV-1" vertex="1">
          <mxGeometry x="747" y="-745" width="80" height="80" as="geometry" />
        </mxCell>
        <mxCell id="UTOXGBRC5Ul77BO6yHyL-8" value="&lt;font style=&quot;font-size: 20px;&quot;&gt;STT_CONGVIEC&lt;/font&gt;" style="ellipse;whiteSpace=wrap;html=1;rounded=0;" parent="WIyWlLk6GJQsqaUBKTNV-1" vertex="1">
          <mxGeometry x="508.5" y="-750" width="181.5" height="80" as="geometry" />
        </mxCell>
        <mxCell id="UTOXGBRC5Ul77BO6yHyL-9" value="&lt;font style=&quot;font-size: 20px;&quot;&gt;KETQUA&lt;/font&gt;" style="ellipse;whiteSpace=wrap;html=1;rounded=0;" parent="WIyWlLk6GJQsqaUBKTNV-1" vertex="1">
          <mxGeometry x="603" y="-835" width="93.5" height="80" as="geometry" />
        </mxCell>
        <mxCell id="UTOXGBRC5Ul77BO6yHyL-12" value="" style="endArrow=none;html=1;rounded=0;exitX=0.35;exitY=1.05;exitDx=0;exitDy=0;exitPerimeter=0;" parent="WIyWlLk6GJQsqaUBKTNV-1" source="UTOXGBRC5Ul77BO6yHyL-5" target="UTOXGBRC5Ul77BO6yHyL-3" edge="1">
          <mxGeometry width="50" height="50" relative="1" as="geometry">
            <mxPoint x="780" y="80" as="sourcePoint" />
            <mxPoint x="789.9999999999995" y="195" as="targetPoint" />
          </mxGeometry>
        </mxCell>
        <mxCell id="UTOXGBRC5Ul77BO6yHyL-14" value="" style="endArrow=none;html=1;rounded=0;exitX=1;exitY=1;exitDx=0;exitDy=0;entryX=0.625;entryY=0.88;entryDx=0;entryDy=0;entryPerimeter=0;" parent="WIyWlLk6GJQsqaUBKTNV-1" source="UTOXGBRC5Ul77BO6yHyL-9" target="UTOXGBRC5Ul77BO6yHyL-3" edge="1">
          <mxGeometry width="50" height="50" relative="1" as="geometry">
            <mxPoint x="780" y="230" as="sourcePoint" />
            <mxPoint x="734.333333333333" y="210" as="targetPoint" />
          </mxGeometry>
        </mxCell>
        <mxCell id="UTOXGBRC5Ul77BO6yHyL-16" value="" style="endArrow=none;html=1;rounded=0;entryX=0.131;entryY=0.32;entryDx=0;entryDy=0;entryPerimeter=0;" parent="WIyWlLk6GJQsqaUBKTNV-1" source="UTOXGBRC5Ul77BO6yHyL-8" target="UTOXGBRC5Ul77BO6yHyL-3" edge="1">
          <mxGeometry width="50" height="50" relative="1" as="geometry">
            <mxPoint x="880" y="510" as="sourcePoint" />
            <mxPoint x="711.7599999999998" y="213" as="targetPoint" />
          </mxGeometry>
        </mxCell>
        <mxCell id="UTOXGBRC5Ul77BO6yHyL-37" value="" style="shape=table;startSize=0;container=1;collapsible=0;childLayout=tableLayout;" parent="WIyWlLk6GJQsqaUBKTNV-1" vertex="1">
          <mxGeometry x="-3040" y="330" width="657" height="20" as="geometry" />
        </mxCell>
        <mxCell id="UTOXGBRC5Ul77BO6yHyL-38" value="" style="shape=tableRow;horizontal=0;startSize=0;swimlaneHead=0;swimlaneBody=0;strokeColor=inherit;top=0;left=0;bottom=0;right=0;collapsible=0;dropTarget=0;fillColor=none;points=[[0,0.5],[1,0.5]];portConstraint=eastwest;" parent="UTOXGBRC5Ul77BO6yHyL-37" vertex="1">
          <mxGeometry width="657" height="20" as="geometry" />
        </mxCell>
        <mxCell id="UTOXGBRC5Ul77BO6yHyL-39" value="&lt;u style=&quot;&quot;&gt;MA&lt;/u&gt;" style="shape=partialRectangle;html=1;whiteSpace=wrap;connectable=0;strokeColor=inherit;overflow=hidden;fillColor=none;top=0;left=0;bottom=0;right=0;pointerEvents=1;" parent="UTOXGBRC5Ul77BO6yHyL-38" vertex="1">
          <mxGeometry width="60" height="20" as="geometry">
            <mxRectangle width="60" height="20" as="alternateBounds" />
          </mxGeometry>
        </mxCell>
        <mxCell id="UTOXGBRC5Ul77BO6yHyL-40" value="HO" style="shape=partialRectangle;html=1;whiteSpace=wrap;connectable=0;strokeColor=inherit;overflow=hidden;fillColor=none;top=0;left=0;bottom=0;right=0;pointerEvents=1;" parent="UTOXGBRC5Ul77BO6yHyL-38" vertex="1">
          <mxGeometry x="60" width="50" height="20" as="geometry">
            <mxRectangle width="50" height="20" as="alternateBounds" />
          </mxGeometry>
        </mxCell>
        <mxCell id="UTOXGBRC5Ul77BO6yHyL-41" value="TENLOT" style="shape=partialRectangle;html=1;whiteSpace=wrap;connectable=0;strokeColor=inherit;overflow=hidden;fillColor=none;top=0;left=0;bottom=0;right=0;pointerEvents=1;" parent="UTOXGBRC5Ul77BO6yHyL-38" vertex="1">
          <mxGeometry x="110" width="70" height="20" as="geometry">
            <mxRectangle width="70" height="20" as="alternateBounds" />
          </mxGeometry>
        </mxCell>
        <mxCell id="UTOXGBRC5Ul77BO6yHyL-42" value="TEN" style="shape=partialRectangle;html=1;whiteSpace=wrap;connectable=0;strokeColor=inherit;overflow=hidden;fillColor=none;top=0;left=0;bottom=0;right=0;pointerEvents=1;" parent="UTOXGBRC5Ul77BO6yHyL-38" vertex="1">
          <mxGeometry x="180" width="60" height="20" as="geometry">
            <mxRectangle width="60" height="20" as="alternateBounds" />
          </mxGeometry>
        </mxCell>
        <mxCell id="UTOXGBRC5Ul77BO6yHyL-43" value="PHAI" style="shape=partialRectangle;html=1;whiteSpace=wrap;connectable=0;strokeColor=inherit;overflow=hidden;fillColor=none;top=0;left=0;bottom=0;right=0;pointerEvents=1;" parent="UTOXGBRC5Ul77BO6yHyL-38" vertex="1">
          <mxGeometry x="240" width="60" height="20" as="geometry">
            <mxRectangle width="60" height="20" as="alternateBounds" />
          </mxGeometry>
        </mxCell>
        <mxCell id="UTOXGBRC5Ul77BO6yHyL-44" value="NGSINH" style="shape=partialRectangle;html=1;whiteSpace=wrap;connectable=0;strokeColor=inherit;overflow=hidden;fillColor=none;top=0;left=0;bottom=0;right=0;pointerEvents=1;" parent="UTOXGBRC5Ul77BO6yHyL-38" vertex="1">
          <mxGeometry x="300" width="70" height="20" as="geometry">
            <mxRectangle width="70" height="20" as="alternateBounds" />
          </mxGeometry>
        </mxCell>
        <mxCell id="UTOXGBRC5Ul77BO6yHyL-45" value="LUONG" style="shape=partialRectangle;html=1;whiteSpace=wrap;connectable=0;strokeColor=inherit;overflow=hidden;fillColor=none;top=0;left=0;bottom=0;right=0;pointerEvents=1;" parent="UTOXGBRC5Ul77BO6yHyL-38" vertex="1">
          <mxGeometry x="370" width="70" height="20" as="geometry">
            <mxRectangle width="70" height="20" as="alternateBounds" />
          </mxGeometry>
        </mxCell>
        <mxCell id="UTOXGBRC5Ul77BO6yHyL-46" value="&lt;u&gt;KHOA&lt;/u&gt;" style="shape=partialRectangle;html=1;whiteSpace=wrap;connectable=0;strokeColor=inherit;overflow=hidden;fillColor=none;top=0;left=0;bottom=0;right=0;pointerEvents=1;" parent="UTOXGBRC5Ul77BO6yHyL-38" vertex="1">
          <mxGeometry x="440" width="70" height="20" as="geometry">
            <mxRectangle width="70" height="20" as="alternateBounds" />
          </mxGeometry>
        </mxCell>
        <mxCell id="UTOXGBRC5Ul77BO6yHyL-47" value="&lt;u&gt;BO_MON&lt;/u&gt;" style="shape=partialRectangle;html=1;whiteSpace=wrap;connectable=0;strokeColor=inherit;overflow=hidden;fillColor=none;top=0;left=0;bottom=0;right=0;pointerEvents=1;" parent="UTOXGBRC5Ul77BO6yHyL-38" vertex="1">
          <mxGeometry x="510" width="67" height="20" as="geometry">
            <mxRectangle width="67" height="20" as="alternateBounds" />
          </mxGeometry>
        </mxCell>
        <mxCell id="UTOXGBRC5Ul77BO6yHyL-48" value="PHU_CAP" style="shape=partialRectangle;html=1;whiteSpace=wrap;connectable=0;strokeColor=inherit;overflow=hidden;fillColor=none;top=0;left=0;bottom=0;right=0;pointerEvents=1;" parent="UTOXGBRC5Ul77BO6yHyL-38" vertex="1">
          <mxGeometry x="577" width="80" height="20" as="geometry">
            <mxRectangle width="80" height="20" as="alternateBounds" />
          </mxGeometry>
        </mxCell>
        <mxCell id="UTOXGBRC5Ul77BO6yHyL-63" value="" style="shape=table;startSize=0;container=1;collapsible=0;childLayout=tableLayout;" parent="WIyWlLk6GJQsqaUBKTNV-1" vertex="1">
          <mxGeometry x="-3040" y="390" width="120" height="20" as="geometry" />
        </mxCell>
        <mxCell id="UTOXGBRC5Ul77BO6yHyL-64" value="" style="shape=tableRow;horizontal=0;startSize=0;swimlaneHead=0;swimlaneBody=0;strokeColor=inherit;top=0;left=0;bottom=0;right=0;collapsible=0;dropTarget=0;fillColor=none;points=[[0,0.5],[1,0.5]];portConstraint=eastwest;" parent="UTOXGBRC5Ul77BO6yHyL-63" vertex="1">
          <mxGeometry width="120" height="20" as="geometry" />
        </mxCell>
        <mxCell id="UTOXGBRC5Ul77BO6yHyL-65" value="&lt;u&gt;MA&lt;/u&gt;" style="shape=partialRectangle;html=1;whiteSpace=wrap;connectable=0;strokeColor=inherit;overflow=hidden;fillColor=none;top=0;left=0;bottom=0;right=0;pointerEvents=1;" parent="UTOXGBRC5Ul77BO6yHyL-64" vertex="1">
          <mxGeometry width="60" height="20" as="geometry">
            <mxRectangle width="60" height="20" as="alternateBounds" />
          </mxGeometry>
        </mxCell>
        <mxCell id="UTOXGBRC5Ul77BO6yHyL-66" value="TEN" style="shape=partialRectangle;html=1;whiteSpace=wrap;connectable=0;strokeColor=inherit;overflow=hidden;fillColor=none;top=0;left=0;bottom=0;right=0;pointerEvents=1;" parent="UTOXGBRC5Ul77BO6yHyL-64" vertex="1">
          <mxGeometry x="60" width="60" height="20" as="geometry">
            <mxRectangle width="60" height="20" as="alternateBounds" />
          </mxGeometry>
        </mxCell>
        <mxCell id="UTOXGBRC5Ul77BO6yHyL-69" value="" style="shape=table;startSize=0;container=1;collapsible=0;childLayout=tableLayout;" parent="WIyWlLk6GJQsqaUBKTNV-1" vertex="1">
          <mxGeometry x="-3041.5" y="450" width="727" height="20" as="geometry" />
        </mxCell>
        <mxCell id="UTOXGBRC5Ul77BO6yHyL-70" value="" style="shape=tableRow;horizontal=0;startSize=0;swimlaneHead=0;swimlaneBody=0;strokeColor=inherit;top=0;left=0;bottom=0;right=0;collapsible=0;dropTarget=0;fillColor=none;points=[[0,0.5],[1,0.5]];portConstraint=eastwest;" parent="UTOXGBRC5Ul77BO6yHyL-69" vertex="1">
          <mxGeometry width="727" height="20" as="geometry" />
        </mxCell>
        <mxCell id="UTOXGBRC5Ul77BO6yHyL-71" value="&lt;u&gt;MA&lt;/u&gt;" style="shape=partialRectangle;html=1;whiteSpace=wrap;connectable=0;strokeColor=inherit;overflow=hidden;fillColor=none;top=0;left=0;bottom=0;right=0;pointerEvents=1;" parent="UTOXGBRC5Ul77BO6yHyL-70" vertex="1">
          <mxGeometry width="60" height="20" as="geometry">
            <mxRectangle width="60" height="20" as="alternateBounds" />
          </mxGeometry>
        </mxCell>
        <mxCell id="UTOXGBRC5Ul77BO6yHyL-72" value="TEN&lt;span style=&quot;white-space: pre;&quot;&gt;&#x9;&lt;/span&gt;" style="shape=partialRectangle;html=1;whiteSpace=wrap;connectable=0;strokeColor=inherit;overflow=hidden;fillColor=none;top=0;left=0;bottom=0;right=0;pointerEvents=1;" parent="UTOXGBRC5Ul77BO6yHyL-70" vertex="1">
          <mxGeometry x="60" width="60" height="20" as="geometry">
            <mxRectangle width="60" height="20" as="alternateBounds" />
          </mxGeometry>
        </mxCell>
        <mxCell id="UTOXGBRC5Ul77BO6yHyL-73" value="NAM_THANH_LAP" style="shape=partialRectangle;html=1;whiteSpace=wrap;connectable=0;strokeColor=inherit;overflow=hidden;fillColor=none;top=0;left=0;bottom=0;right=0;pointerEvents=1;" parent="UTOXGBRC5Ul77BO6yHyL-70" vertex="1">
          <mxGeometry x="120" width="120" height="20" as="geometry">
            <mxRectangle width="120" height="20" as="alternateBounds" />
          </mxGeometry>
        </mxCell>
        <mxCell id="UTOXGBRC5Ul77BO6yHyL-74" value="&lt;u&gt;PHONG_LAM_VIEC&lt;/u&gt;" style="shape=partialRectangle;html=1;whiteSpace=wrap;connectable=0;strokeColor=inherit;overflow=hidden;fillColor=none;top=0;left=0;bottom=0;right=0;pointerEvents=1;" parent="UTOXGBRC5Ul77BO6yHyL-70" vertex="1">
          <mxGeometry x="240" width="140" height="20" as="geometry">
            <mxRectangle width="140" height="20" as="alternateBounds" />
          </mxGeometry>
        </mxCell>
        <mxCell id="UTOXGBRC5Ul77BO6yHyL-75" value="&lt;u style=&quot;border-color: var(--border-color);&quot;&gt;TRUONG_KHOA&lt;/u&gt;" style="shape=partialRectangle;html=1;whiteSpace=wrap;connectable=0;strokeColor=inherit;overflow=hidden;fillColor=none;top=0;left=0;bottom=0;right=0;pointerEvents=1;" parent="UTOXGBRC5Ul77BO6yHyL-70" vertex="1">
          <mxGeometry x="380" width="110" height="20" as="geometry">
            <mxRectangle width="110" height="20" as="alternateBounds" />
          </mxGeometry>
        </mxCell>
        <mxCell id="UTOXGBRC5Ul77BO6yHyL-76" value="&lt;span style=&quot;color: rgb(0, 0, 0); font-family: Helvetica; font-size: 12px; font-style: normal; font-variant-ligatures: normal; font-variant-caps: normal; font-weight: 400; letter-spacing: normal; orphans: 2; text-align: center; text-indent: 0px; text-transform: none; widows: 2; word-spacing: 0px; -webkit-text-stroke-width: 0px; background-color: rgb(251, 251, 251); text-decoration-thickness: initial; text-decoration-style: initial; text-decoration-color: initial; float: none; display: inline !important;&quot;&gt;&lt;u&gt;SO_DIEN_THOAI&lt;/u&gt;&lt;/span&gt;" style="shape=partialRectangle;html=1;whiteSpace=wrap;connectable=0;strokeColor=inherit;overflow=hidden;fillColor=none;top=0;left=0;bottom=0;right=0;pointerEvents=1;" parent="UTOXGBRC5Ul77BO6yHyL-70" vertex="1">
          <mxGeometry x="490" width="107" height="20" as="geometry">
            <mxRectangle width="107" height="20" as="alternateBounds" />
          </mxGeometry>
        </mxCell>
        <mxCell id="UTOXGBRC5Ul77BO6yHyL-77" value="NGAY_NHAN_CHUC" style="shape=partialRectangle;html=1;whiteSpace=wrap;connectable=0;strokeColor=inherit;overflow=hidden;fillColor=none;top=0;left=0;bottom=0;right=0;pointerEvents=1;" parent="UTOXGBRC5Ul77BO6yHyL-70" vertex="1">
          <mxGeometry x="597" width="130" height="20" as="geometry">
            <mxRectangle width="130" height="20" as="alternateBounds" />
          </mxGeometry>
        </mxCell>
        <mxCell id="UTOXGBRC5Ul77BO6yHyL-79" value="" style="shape=table;startSize=0;container=1;collapsible=0;childLayout=tableLayout;" parent="WIyWlLk6GJQsqaUBKTNV-1" vertex="1">
          <mxGeometry x="-3041.5" y="510" width="721.5" height="20" as="geometry" />
        </mxCell>
        <mxCell id="UTOXGBRC5Ul77BO6yHyL-80" value="" style="shape=tableRow;horizontal=0;startSize=0;swimlaneHead=0;swimlaneBody=0;strokeColor=inherit;top=0;left=0;bottom=0;right=0;collapsible=0;dropTarget=0;fillColor=none;points=[[0,0.5],[1,0.5]];portConstraint=eastwest;" parent="UTOXGBRC5Ul77BO6yHyL-79" vertex="1">
          <mxGeometry width="721.5" height="20" as="geometry" />
        </mxCell>
        <mxCell id="UTOXGBRC5Ul77BO6yHyL-81" value="&lt;u&gt;MA&lt;/u&gt;" style="shape=partialRectangle;html=1;whiteSpace=wrap;connectable=0;strokeColor=inherit;overflow=hidden;fillColor=none;top=0;left=0;bottom=0;right=0;pointerEvents=1;" parent="UTOXGBRC5Ul77BO6yHyL-80" vertex="1">
          <mxGeometry width="79" height="20" as="geometry">
            <mxRectangle width="79" height="20" as="alternateBounds" />
          </mxGeometry>
        </mxCell>
        <mxCell id="UTOXGBRC5Ul77BO6yHyL-82" value="TEN" style="shape=partialRectangle;html=1;whiteSpace=wrap;connectable=0;strokeColor=inherit;overflow=hidden;fillColor=none;top=0;left=0;bottom=0;right=0;pointerEvents=1;" parent="UTOXGBRC5Ul77BO6yHyL-80" vertex="1">
          <mxGeometry x="79" width="69" height="20" as="geometry">
            <mxRectangle width="69" height="20" as="alternateBounds" />
          </mxGeometry>
        </mxCell>
        <mxCell id="UTOXGBRC5Ul77BO6yHyL-83" value="PHONG" style="shape=partialRectangle;html=1;whiteSpace=wrap;connectable=0;strokeColor=inherit;overflow=hidden;fillColor=none;top=0;left=0;bottom=0;right=0;pointerEvents=1;" parent="UTOXGBRC5Ul77BO6yHyL-80" vertex="1">
          <mxGeometry x="148" width="89" height="20" as="geometry">
            <mxRectangle width="89" height="20" as="alternateBounds" />
          </mxGeometry>
        </mxCell>
        <mxCell id="UTOXGBRC5Ul77BO6yHyL-84" value="&lt;u&gt;SO_DIEN_THOAI&lt;/u&gt;" style="shape=partialRectangle;html=1;whiteSpace=wrap;connectable=0;strokeColor=inherit;overflow=hidden;fillColor=none;top=0;left=0;bottom=0;right=0;pointerEvents=1;" parent="UTOXGBRC5Ul77BO6yHyL-80" vertex="1">
          <mxGeometry x="237" width="119" height="20" as="geometry">
            <mxRectangle width="119" height="20" as="alternateBounds" />
          </mxGeometry>
        </mxCell>
        <mxCell id="UTOXGBRC5Ul77BO6yHyL-85" value="&lt;u&gt;MA_KHOA&lt;/u&gt;" style="shape=partialRectangle;html=1;whiteSpace=wrap;connectable=0;strokeColor=inherit;overflow=hidden;fillColor=none;top=0;left=0;bottom=0;right=0;pointerEvents=1;" parent="UTOXGBRC5Ul77BO6yHyL-80" vertex="1">
          <mxGeometry x="356" width="99" height="20" as="geometry">
            <mxRectangle width="99" height="20" as="alternateBounds" />
          </mxGeometry>
        </mxCell>
        <mxCell id="UTOXGBRC5Ul77BO6yHyL-86" value="&lt;u&gt;TRUONG_BO_MON&lt;/u&gt;" style="shape=partialRectangle;html=1;whiteSpace=wrap;connectable=0;strokeColor=inherit;overflow=hidden;fillColor=none;top=0;left=0;bottom=0;right=0;pointerEvents=1;" parent="UTOXGBRC5Ul77BO6yHyL-80" vertex="1">
          <mxGeometry x="455" width="128" height="20" as="geometry">
            <mxRectangle width="128" height="20" as="alternateBounds" />
          </mxGeometry>
        </mxCell>
        <mxCell id="UTOXGBRC5Ul77BO6yHyL-87" value="NGAY_NHAN_CHUC" style="shape=partialRectangle;html=1;whiteSpace=wrap;connectable=0;strokeColor=inherit;overflow=hidden;fillColor=none;top=0;left=0;bottom=0;right=0;pointerEvents=1;" parent="UTOXGBRC5Ul77BO6yHyL-80" vertex="1">
          <mxGeometry x="583" width="139" height="20" as="geometry">
            <mxRectangle width="139" height="20" as="alternateBounds" />
          </mxGeometry>
        </mxCell>
        <mxCell id="UTOXGBRC5Ul77BO6yHyL-98" value="" style="shape=table;startSize=0;container=1;collapsible=0;childLayout=tableLayout;" parent="WIyWlLk6GJQsqaUBKTNV-1" vertex="1">
          <mxGeometry x="-3040" y="570" width="200" height="20" as="geometry" />
        </mxCell>
        <mxCell id="UTOXGBRC5Ul77BO6yHyL-99" value="" style="shape=tableRow;horizontal=0;startSize=0;swimlaneHead=0;swimlaneBody=0;strokeColor=inherit;top=0;left=0;bottom=0;right=0;collapsible=0;dropTarget=0;fillColor=none;points=[[0,0.5],[1,0.5]];portConstraint=eastwest;" parent="UTOXGBRC5Ul77BO6yHyL-98" vertex="1">
          <mxGeometry width="200" height="20" as="geometry" />
        </mxCell>
        <mxCell id="UTOXGBRC5Ul77BO6yHyL-100" value="&lt;u&gt;MAGV&lt;/u&gt;" style="shape=partialRectangle;html=1;whiteSpace=wrap;connectable=0;strokeColor=inherit;overflow=hidden;fillColor=none;top=0;left=0;bottom=0;right=0;pointerEvents=1;" parent="UTOXGBRC5Ul77BO6yHyL-99" vertex="1">
          <mxGeometry width="70" height="20" as="geometry">
            <mxRectangle width="70" height="20" as="alternateBounds" />
          </mxGeometry>
        </mxCell>
        <mxCell id="UTOXGBRC5Ul77BO6yHyL-101" value="&lt;u&gt;SO_DIEN_THOAI&lt;/u&gt;" style="shape=partialRectangle;html=1;whiteSpace=wrap;connectable=0;strokeColor=inherit;overflow=hidden;fillColor=none;top=0;left=0;bottom=0;right=0;pointerEvents=1;" parent="UTOXGBRC5Ul77BO6yHyL-99" vertex="1">
          <mxGeometry x="70" width="130" height="20" as="geometry">
            <mxRectangle width="130" height="20" as="alternateBounds" />
          </mxGeometry>
        </mxCell>
        <mxCell id="UTOXGBRC5Ul77BO6yHyL-104" value="" style="shape=table;startSize=0;container=1;collapsible=0;childLayout=tableLayout;" parent="WIyWlLk6GJQsqaUBKTNV-1" vertex="1">
          <mxGeometry x="-3041.5" y="630" width="377" height="20" as="geometry" />
        </mxCell>
        <mxCell id="UTOXGBRC5Ul77BO6yHyL-105" value="" style="shape=tableRow;horizontal=0;startSize=0;swimlaneHead=0;swimlaneBody=0;strokeColor=inherit;top=0;left=0;bottom=0;right=0;collapsible=0;dropTarget=0;fillColor=none;points=[[0,0.5],[1,0.5]];portConstraint=eastwest;" parent="UTOXGBRC5Ul77BO6yHyL-104" vertex="1">
          <mxGeometry width="377" height="20" as="geometry" />
        </mxCell>
        <mxCell id="UTOXGBRC5Ul77BO6yHyL-106" value="&lt;u&gt;MAGV&lt;/u&gt;" style="shape=partialRectangle;html=1;whiteSpace=wrap;connectable=0;strokeColor=inherit;overflow=hidden;fillColor=none;top=0;left=0;bottom=0;right=0;pointerEvents=1;" parent="UTOXGBRC5Ul77BO6yHyL-105" vertex="1">
          <mxGeometry width="63" height="20" as="geometry">
            <mxRectangle width="63" height="20" as="alternateBounds" />
          </mxGeometry>
        </mxCell>
        <mxCell id="UTOXGBRC5Ul77BO6yHyL-107" value="SONHA" style="shape=partialRectangle;html=1;whiteSpace=wrap;connectable=0;strokeColor=inherit;overflow=hidden;fillColor=none;top=0;left=0;bottom=0;right=0;pointerEvents=1;" parent="UTOXGBRC5Ul77BO6yHyL-105" vertex="1">
          <mxGeometry x="63" width="88" height="20" as="geometry">
            <mxRectangle width="88" height="20" as="alternateBounds" />
          </mxGeometry>
        </mxCell>
        <mxCell id="UTOXGBRC5Ul77BO6yHyL-108" value="DUONG" style="shape=partialRectangle;html=1;whiteSpace=wrap;connectable=0;strokeColor=inherit;overflow=hidden;fillColor=none;top=0;left=0;bottom=0;right=0;pointerEvents=1;" parent="UTOXGBRC5Ul77BO6yHyL-105" vertex="1">
          <mxGeometry x="151" width="75" height="20" as="geometry">
            <mxRectangle width="75" height="20" as="alternateBounds" />
          </mxGeometry>
        </mxCell>
        <mxCell id="UTOXGBRC5Ul77BO6yHyL-109" value="QUAN" style="shape=partialRectangle;html=1;whiteSpace=wrap;connectable=0;strokeColor=inherit;overflow=hidden;fillColor=none;top=0;left=0;bottom=0;right=0;pointerEvents=1;" parent="UTOXGBRC5Ul77BO6yHyL-105" vertex="1">
          <mxGeometry x="226" width="76" height="20" as="geometry">
            <mxRectangle width="76" height="20" as="alternateBounds" />
          </mxGeometry>
        </mxCell>
        <mxCell id="UTOXGBRC5Ul77BO6yHyL-110" value="THANHPHO" style="shape=partialRectangle;html=1;whiteSpace=wrap;connectable=0;strokeColor=inherit;overflow=hidden;fillColor=none;top=0;left=0;bottom=0;right=0;pointerEvents=1;" parent="UTOXGBRC5Ul77BO6yHyL-105" vertex="1">
          <mxGeometry x="302" width="75" height="20" as="geometry">
            <mxRectangle width="75" height="20" as="alternateBounds" />
          </mxGeometry>
        </mxCell>
        <mxCell id="UTOXGBRC5Ul77BO6yHyL-112" value="" style="shape=table;startSize=0;container=1;collapsible=0;childLayout=tableLayout;" parent="WIyWlLk6GJQsqaUBKTNV-1" vertex="1">
          <mxGeometry x="-3041.5" y="690" width="120" height="20" as="geometry" />
        </mxCell>
        <mxCell id="UTOXGBRC5Ul77BO6yHyL-113" value="" style="shape=tableRow;horizontal=0;startSize=0;swimlaneHead=0;swimlaneBody=0;strokeColor=inherit;top=0;left=0;bottom=0;right=0;collapsible=0;dropTarget=0;fillColor=none;points=[[0,0.5],[1,0.5]];portConstraint=eastwest;" parent="UTOXGBRC5Ul77BO6yHyL-112" vertex="1">
          <mxGeometry width="120" height="20" as="geometry" />
        </mxCell>
        <mxCell id="UTOXGBRC5Ul77BO6yHyL-114" value="&lt;u&gt;MA&lt;/u&gt;" style="shape=partialRectangle;html=1;whiteSpace=wrap;connectable=0;strokeColor=inherit;overflow=hidden;fillColor=none;top=0;left=0;bottom=0;right=0;pointerEvents=1;" parent="UTOXGBRC5Ul77BO6yHyL-113" vertex="1">
          <mxGeometry width="60" height="20" as="geometry">
            <mxRectangle width="60" height="20" as="alternateBounds" />
          </mxGeometry>
        </mxCell>
        <mxCell id="UTOXGBRC5Ul77BO6yHyL-115" value="TEN" style="shape=partialRectangle;html=1;whiteSpace=wrap;connectable=0;strokeColor=inherit;overflow=hidden;fillColor=none;top=0;left=0;bottom=0;right=0;pointerEvents=1;" parent="UTOXGBRC5Ul77BO6yHyL-113" vertex="1">
          <mxGeometry x="60" width="60" height="20" as="geometry">
            <mxRectangle width="60" height="20" as="alternateBounds" />
          </mxGeometry>
        </mxCell>
        <mxCell id="UTOXGBRC5Ul77BO6yHyL-116" value="" style="shape=table;startSize=0;container=1;collapsible=0;childLayout=tableLayout;" parent="WIyWlLk6GJQsqaUBKTNV-1" vertex="1">
          <mxGeometry x="-3041.5" y="750" width="750" height="20" as="geometry" />
        </mxCell>
        <mxCell id="UTOXGBRC5Ul77BO6yHyL-117" value="" style="shape=tableRow;horizontal=0;startSize=0;swimlaneHead=0;swimlaneBody=0;strokeColor=inherit;top=0;left=0;bottom=0;right=0;collapsible=0;dropTarget=0;fillColor=none;points=[[0,0.5],[1,0.5]];portConstraint=eastwest;" parent="UTOXGBRC5Ul77BO6yHyL-116" vertex="1">
          <mxGeometry width="750" height="20" as="geometry" />
        </mxCell>
        <mxCell id="UTOXGBRC5Ul77BO6yHyL-118" value="STT" style="shape=partialRectangle;html=1;whiteSpace=wrap;connectable=0;strokeColor=inherit;overflow=hidden;fillColor=none;top=0;left=0;bottom=0;right=0;pointerEvents=1;" parent="UTOXGBRC5Ul77BO6yHyL-117" vertex="1">
          <mxGeometry width="50" height="20" as="geometry">
            <mxRectangle width="50" height="20" as="alternateBounds" />
          </mxGeometry>
        </mxCell>
        <mxCell id="UTOXGBRC5Ul77BO6yHyL-119" value="&lt;u&gt;MA&lt;/u&gt;" style="shape=partialRectangle;html=1;whiteSpace=wrap;connectable=0;strokeColor=inherit;overflow=hidden;fillColor=none;top=0;left=0;bottom=0;right=0;pointerEvents=1;" parent="UTOXGBRC5Ul77BO6yHyL-117" vertex="1">
          <mxGeometry x="50" width="40" height="20" as="geometry">
            <mxRectangle width="40" height="20" as="alternateBounds" />
          </mxGeometry>
        </mxCell>
        <mxCell id="UTOXGBRC5Ul77BO6yHyL-120" value="TEN" style="shape=partialRectangle;html=1;whiteSpace=wrap;connectable=0;strokeColor=inherit;overflow=hidden;fillColor=none;top=0;left=0;bottom=0;right=0;pointerEvents=1;" parent="UTOXGBRC5Ul77BO6yHyL-117" vertex="1">
          <mxGeometry x="90" width="60" height="20" as="geometry">
            <mxRectangle width="60" height="20" as="alternateBounds" />
          </mxGeometry>
        </mxCell>
        <mxCell id="UTOXGBRC5Ul77BO6yHyL-121" value="&lt;u&gt;CAP_QUAN_LY&lt;/u&gt;" style="shape=partialRectangle;html=1;whiteSpace=wrap;connectable=0;strokeColor=inherit;overflow=hidden;fillColor=none;top=0;left=0;bottom=0;right=0;pointerEvents=1;" parent="UTOXGBRC5Ul77BO6yHyL-117" vertex="1">
          <mxGeometry x="150" width="100" height="20" as="geometry">
            <mxRectangle width="100" height="20" as="alternateBounds" />
          </mxGeometry>
        </mxCell>
        <mxCell id="UTOXGBRC5Ul77BO6yHyL-122" value="KINH_PHI" style="shape=partialRectangle;html=1;whiteSpace=wrap;connectable=0;strokeColor=inherit;overflow=hidden;fillColor=none;top=0;left=0;bottom=0;right=0;pointerEvents=1;" parent="UTOXGBRC5Ul77BO6yHyL-117" vertex="1">
          <mxGeometry x="250" width="80" height="20" as="geometry">
            <mxRectangle width="80" height="20" as="alternateBounds" />
          </mxGeometry>
        </mxCell>
        <mxCell id="UTOXGBRC5Ul77BO6yHyL-123" value="NGAY_BAT_DAU" style="shape=partialRectangle;html=1;whiteSpace=wrap;connectable=0;strokeColor=inherit;overflow=hidden;fillColor=none;top=0;left=0;bottom=0;right=0;pointerEvents=1;" parent="UTOXGBRC5Ul77BO6yHyL-117" vertex="1">
          <mxGeometry x="330" width="110" height="20" as="geometry">
            <mxRectangle width="110" height="20" as="alternateBounds" />
          </mxGeometry>
        </mxCell>
        <mxCell id="UTOXGBRC5Ul77BO6yHyL-124" value="NGAY_KET_THUC" style="shape=partialRectangle;html=1;whiteSpace=wrap;connectable=0;strokeColor=inherit;overflow=hidden;fillColor=none;top=0;left=0;bottom=0;right=0;pointerEvents=1;" parent="UTOXGBRC5Ul77BO6yHyL-117" vertex="1">
          <mxGeometry x="440" width="120" height="20" as="geometry">
            <mxRectangle width="120" height="20" as="alternateBounds" />
          </mxGeometry>
        </mxCell>
        <mxCell id="UTOXGBRC5Ul77BO6yHyL-125" value="&lt;u&gt;CHU_DE&lt;/u&gt;" style="shape=partialRectangle;html=1;whiteSpace=wrap;connectable=0;strokeColor=inherit;overflow=hidden;fillColor=none;top=0;left=0;bottom=0;right=0;pointerEvents=1;" parent="UTOXGBRC5Ul77BO6yHyL-117" vertex="1">
          <mxGeometry x="560" width="80" height="20" as="geometry">
            <mxRectangle width="80" height="20" as="alternateBounds" />
          </mxGeometry>
        </mxCell>
        <mxCell id="UTOXGBRC5Ul77BO6yHyL-126" value="LA_CAPTRUONG" style="shape=partialRectangle;html=1;whiteSpace=wrap;connectable=0;strokeColor=inherit;overflow=hidden;fillColor=none;top=0;left=0;bottom=0;right=0;pointerEvents=1;" parent="UTOXGBRC5Ul77BO6yHyL-117" vertex="1">
          <mxGeometry x="640" width="110" height="20" as="geometry">
            <mxRectangle width="110" height="20" as="alternateBounds" />
          </mxGeometry>
        </mxCell>
        <mxCell id="UTOXGBRC5Ul77BO6yHyL-128" value="" style="shape=table;startSize=0;container=1;collapsible=0;childLayout=tableLayout;" parent="WIyWlLk6GJQsqaUBKTNV-1" vertex="1">
          <mxGeometry x="-3040" y="805" width="420" height="20" as="geometry" />
        </mxCell>
        <mxCell id="UTOXGBRC5Ul77BO6yHyL-129" value="" style="shape=tableRow;horizontal=0;startSize=0;swimlaneHead=0;swimlaneBody=0;strokeColor=inherit;top=0;left=0;bottom=0;right=0;collapsible=0;dropTarget=0;fillColor=none;points=[[0,0.5],[1,0.5]];portConstraint=eastwest;" parent="UTOXGBRC5Ul77BO6yHyL-128" vertex="1">
          <mxGeometry width="420" height="20" as="geometry" />
        </mxCell>
        <mxCell id="UTOXGBRC5Ul77BO6yHyL-130" value="STT" style="shape=partialRectangle;html=1;whiteSpace=wrap;connectable=0;strokeColor=inherit;overflow=hidden;fillColor=none;top=0;left=0;bottom=0;right=0;pointerEvents=1;" parent="UTOXGBRC5Ul77BO6yHyL-129" vertex="1">
          <mxGeometry width="50" height="20" as="geometry">
            <mxRectangle width="50" height="20" as="alternateBounds" />
          </mxGeometry>
        </mxCell>
        <mxCell id="UTOXGBRC5Ul77BO6yHyL-131" value="HO" style="shape=partialRectangle;html=1;whiteSpace=wrap;connectable=0;strokeColor=inherit;overflow=hidden;fillColor=none;top=0;left=0;bottom=0;right=0;pointerEvents=1;" parent="UTOXGBRC5Ul77BO6yHyL-129" vertex="1">
          <mxGeometry x="50" width="50" height="20" as="geometry">
            <mxRectangle width="50" height="20" as="alternateBounds" />
          </mxGeometry>
        </mxCell>
        <mxCell id="UTOXGBRC5Ul77BO6yHyL-132" value="TENLOT" style="shape=partialRectangle;html=1;whiteSpace=wrap;connectable=0;strokeColor=inherit;overflow=hidden;fillColor=none;top=0;left=0;bottom=0;right=0;pointerEvents=1;" parent="UTOXGBRC5Ul77BO6yHyL-129" vertex="1">
          <mxGeometry x="100" width="60" height="20" as="geometry">
            <mxRectangle width="60" height="20" as="alternateBounds" />
          </mxGeometry>
        </mxCell>
        <mxCell id="UTOXGBRC5Ul77BO6yHyL-133" value="TEN" style="shape=partialRectangle;html=1;whiteSpace=wrap;connectable=0;strokeColor=inherit;overflow=hidden;fillColor=none;top=0;left=0;bottom=0;right=0;pointerEvents=1;" parent="UTOXGBRC5Ul77BO6yHyL-129" vertex="1">
          <mxGeometry x="160" width="50" height="20" as="geometry">
            <mxRectangle width="50" height="20" as="alternateBounds" />
          </mxGeometry>
        </mxCell>
        <mxCell id="UTOXGBRC5Ul77BO6yHyL-134" value="PHAI" style="shape=partialRectangle;html=1;whiteSpace=wrap;connectable=0;strokeColor=inherit;overflow=hidden;fillColor=none;top=0;left=0;bottom=0;right=0;pointerEvents=1;" parent="UTOXGBRC5Ul77BO6yHyL-129" vertex="1">
          <mxGeometry x="210" width="60" height="20" as="geometry">
            <mxRectangle width="60" height="20" as="alternateBounds" />
          </mxGeometry>
        </mxCell>
        <mxCell id="UTOXGBRC5Ul77BO6yHyL-135" value="NGSINH" style="shape=partialRectangle;html=1;whiteSpace=wrap;connectable=0;strokeColor=inherit;overflow=hidden;fillColor=none;top=0;left=0;bottom=0;right=0;pointerEvents=1;" parent="UTOXGBRC5Ul77BO6yHyL-129" vertex="1">
          <mxGeometry x="270" width="70" height="20" as="geometry">
            <mxRectangle width="70" height="20" as="alternateBounds" />
          </mxGeometry>
        </mxCell>
        <mxCell id="UTOXGBRC5Ul77BO6yHyL-136" value="&lt;u&gt;MAGV&lt;/u&gt;" style="shape=partialRectangle;html=1;whiteSpace=wrap;connectable=0;strokeColor=inherit;overflow=hidden;fillColor=none;top=0;left=0;bottom=0;right=0;pointerEvents=1;" parent="UTOXGBRC5Ul77BO6yHyL-129" vertex="1">
          <mxGeometry x="340" width="80" height="20" as="geometry">
            <mxRectangle width="80" height="20" as="alternateBounds" />
          </mxGeometry>
        </mxCell>
        <mxCell id="UTOXGBRC5Ul77BO6yHyL-154" style="edgeStyle=orthogonalEdgeStyle;rounded=0;orthogonalLoop=1;jettySize=auto;html=1;exitX=1;exitY=0.5;exitDx=0;exitDy=0;" parent="UTOXGBRC5Ul77BO6yHyL-128" source="UTOXGBRC5Ul77BO6yHyL-129" target="UTOXGBRC5Ul77BO6yHyL-129" edge="1">
          <mxGeometry relative="1" as="geometry" />
        </mxCell>
        <mxCell id="UTOXGBRC5Ul77BO6yHyL-140" value="" style="shape=table;startSize=0;container=1;collapsible=0;childLayout=tableLayout;" parent="WIyWlLk6GJQsqaUBKTNV-1" vertex="1">
          <mxGeometry x="-3041.5" y="870" width="460" height="20" as="geometry" />
        </mxCell>
        <mxCell id="UTOXGBRC5Ul77BO6yHyL-141" value="" style="shape=tableRow;horizontal=0;startSize=0;swimlaneHead=0;swimlaneBody=0;strokeColor=inherit;top=0;left=0;bottom=0;right=0;collapsible=0;dropTarget=0;fillColor=none;points=[[0,0.5],[1,0.5]];portConstraint=eastwest;" parent="UTOXGBRC5Ul77BO6yHyL-140" vertex="1">
          <mxGeometry width="460" height="20" as="geometry" />
        </mxCell>
        <mxCell id="UTOXGBRC5Ul77BO6yHyL-142" value="&lt;u&gt;STT_CONGVIEC&lt;/u&gt;" style="shape=partialRectangle;html=1;whiteSpace=wrap;connectable=0;strokeColor=inherit;overflow=hidden;fillColor=none;top=0;left=0;bottom=0;right=0;pointerEvents=1;" parent="UTOXGBRC5Ul77BO6yHyL-141" vertex="1">
          <mxGeometry width="120" height="20" as="geometry">
            <mxRectangle width="120" height="20" as="alternateBounds" />
          </mxGeometry>
        </mxCell>
        <mxCell id="UTOXGBRC5Ul77BO6yHyL-143" value="&lt;u&gt;MA&lt;/u&gt;" style="shape=partialRectangle;html=1;whiteSpace=wrap;connectable=0;strokeColor=inherit;overflow=hidden;fillColor=none;top=0;left=0;bottom=0;right=0;pointerEvents=1;" parent="UTOXGBRC5Ul77BO6yHyL-141" vertex="1">
          <mxGeometry x="120" width="40" height="20" as="geometry">
            <mxRectangle width="40" height="20" as="alternateBounds" />
          </mxGeometry>
        </mxCell>
        <mxCell id="UTOXGBRC5Ul77BO6yHyL-144" value="TEN" style="shape=partialRectangle;html=1;whiteSpace=wrap;connectable=0;strokeColor=inherit;overflow=hidden;fillColor=none;top=0;left=0;bottom=0;right=0;pointerEvents=1;" parent="UTOXGBRC5Ul77BO6yHyL-141" vertex="1">
          <mxGeometry x="160" width="60" height="20" as="geometry">
            <mxRectangle width="60" height="20" as="alternateBounds" />
          </mxGeometry>
        </mxCell>
        <mxCell id="UTOXGBRC5Ul77BO6yHyL-145" value="NGAY_BAT_DAU" style="shape=partialRectangle;html=1;whiteSpace=wrap;connectable=0;strokeColor=inherit;overflow=hidden;fillColor=none;top=0;left=0;bottom=0;right=0;pointerEvents=1;" parent="UTOXGBRC5Ul77BO6yHyL-141" vertex="1">
          <mxGeometry x="220" width="110" height="20" as="geometry">
            <mxRectangle width="110" height="20" as="alternateBounds" />
          </mxGeometry>
        </mxCell>
        <mxCell id="UTOXGBRC5Ul77BO6yHyL-146" value="NGAY_KET_THUC" style="shape=partialRectangle;html=1;whiteSpace=wrap;connectable=0;strokeColor=inherit;overflow=hidden;fillColor=none;top=0;left=0;bottom=0;right=0;pointerEvents=1;" parent="UTOXGBRC5Ul77BO6yHyL-141" vertex="1">
          <mxGeometry x="330" width="130" height="20" as="geometry">
            <mxRectangle width="130" height="20" as="alternateBounds" />
          </mxGeometry>
        </mxCell>
        <mxCell id="UTOXGBRC5Ul77BO6yHyL-147" value="" style="shape=table;startSize=0;container=1;collapsible=0;childLayout=tableLayout;" parent="WIyWlLk6GJQsqaUBKTNV-1" vertex="1">
          <mxGeometry x="-3040" y="930" width="400" height="20" as="geometry" />
        </mxCell>
        <mxCell id="UTOXGBRC5Ul77BO6yHyL-148" value="" style="shape=tableRow;horizontal=0;startSize=0;swimlaneHead=0;swimlaneBody=0;strokeColor=inherit;top=0;left=0;bottom=0;right=0;collapsible=0;dropTarget=0;fillColor=none;points=[[0,0.5],[1,0.5]];portConstraint=eastwest;" parent="UTOXGBRC5Ul77BO6yHyL-147" vertex="1">
          <mxGeometry width="400" height="20" as="geometry" />
        </mxCell>
        <mxCell id="UTOXGBRC5Ul77BO6yHyL-149" value="STT" style="shape=partialRectangle;html=1;whiteSpace=wrap;connectable=0;strokeColor=inherit;overflow=hidden;fillColor=none;top=0;left=0;bottom=0;right=0;pointerEvents=1;" parent="UTOXGBRC5Ul77BO6yHyL-148" vertex="1">
          <mxGeometry width="60" height="20" as="geometry">
            <mxRectangle width="60" height="20" as="alternateBounds" />
          </mxGeometry>
        </mxCell>
        <mxCell id="UTOXGBRC5Ul77BO6yHyL-150" value="&lt;u&gt;MA&lt;/u&gt;" style="shape=partialRectangle;html=1;whiteSpace=wrap;connectable=0;strokeColor=inherit;overflow=hidden;fillColor=none;top=0;left=0;bottom=0;right=0;pointerEvents=1;" parent="UTOXGBRC5Ul77BO6yHyL-148" vertex="1">
          <mxGeometry x="60" width="60" height="20" as="geometry">
            <mxRectangle width="60" height="20" as="alternateBounds" />
          </mxGeometry>
        </mxCell>
        <mxCell id="UTOXGBRC5Ul77BO6yHyL-151" value="&lt;u&gt;MAGV&lt;/u&gt;" style="shape=partialRectangle;html=1;whiteSpace=wrap;connectable=0;strokeColor=inherit;overflow=hidden;fillColor=none;top=0;left=0;bottom=0;right=0;pointerEvents=1;" parent="UTOXGBRC5Ul77BO6yHyL-148" vertex="1">
          <mxGeometry x="120" width="60" height="20" as="geometry">
            <mxRectangle width="60" height="20" as="alternateBounds" />
          </mxGeometry>
        </mxCell>
        <mxCell id="UTOXGBRC5Ul77BO6yHyL-152" value="&lt;u&gt;STT_CONGVIEC&lt;/u&gt;" style="shape=partialRectangle;html=1;whiteSpace=wrap;connectable=0;strokeColor=inherit;overflow=hidden;fillColor=none;top=0;left=0;bottom=0;right=0;pointerEvents=1;" parent="UTOXGBRC5Ul77BO6yHyL-148" vertex="1">
          <mxGeometry x="180" width="110" height="20" as="geometry">
            <mxRectangle width="110" height="20" as="alternateBounds" />
          </mxGeometry>
        </mxCell>
        <mxCell id="UTOXGBRC5Ul77BO6yHyL-153" value="KETQUA" style="shape=partialRectangle;html=1;whiteSpace=wrap;connectable=0;strokeColor=inherit;overflow=hidden;fillColor=none;top=0;left=0;bottom=0;right=0;pointerEvents=1;" parent="UTOXGBRC5Ul77BO6yHyL-148" vertex="1">
          <mxGeometry x="290" width="110" height="20" as="geometry">
            <mxRectangle width="110" height="20" as="alternateBounds" />
          </mxGeometry>
        </mxCell>
        <mxCell id="UTOXGBRC5Ul77BO6yHyL-155" value="" style="endArrow=classic;html=1;rounded=0;exitX=0.621;exitY=-0.056;exitDx=0;exitDy=0;exitPerimeter=0;entryX=0.077;entryY=-0.115;entryDx=0;entryDy=0;entryPerimeter=0;" parent="WIyWlLk6GJQsqaUBKTNV-1" source="UTOXGBRC5Ul77BO6yHyL-70" target="UTOXGBRC5Ul77BO6yHyL-38" edge="1">
          <mxGeometry width="50" height="50" relative="1" as="geometry">
            <mxPoint x="-2520" y="430" as="sourcePoint" />
            <mxPoint x="-3050" y="270" as="targetPoint" />
            <Array as="points">
              <mxPoint x="-2590" y="400" />
              <mxPoint x="-2310" y="400" />
              <mxPoint x="-2310" y="270" />
              <mxPoint x="-2990" y="270" />
            </Array>
          </mxGeometry>
        </mxCell>
        <mxCell id="UTOXGBRC5Ul77BO6yHyL-157" value="" style="endArrow=classic;html=1;rounded=0;exitX=0.44;exitY=-0.115;exitDx=0;exitDy=0;exitPerimeter=0;entryX=0.439;entryY=1.121;entryDx=0;entryDy=0;entryPerimeter=0;" parent="WIyWlLk6GJQsqaUBKTNV-1" source="UTOXGBRC5Ul77BO6yHyL-70" target="UTOXGBRC5Ul77BO6yHyL-64" edge="1">
          <mxGeometry width="50" height="50" relative="1" as="geometry">
            <mxPoint x="-2750" y="440" as="sourcePoint" />
            <mxPoint x="-3011" y="410" as="targetPoint" />
            <Array as="points">
              <mxPoint x="-2720" y="430" />
              <mxPoint x="-2987" y="430" />
            </Array>
          </mxGeometry>
        </mxCell>
        <mxCell id="UTOXGBRC5Ul77BO6yHyL-158" value="" style="endArrow=classic;html=1;rounded=0;exitX=0.714;exitY=-0.174;exitDx=0;exitDy=0;exitPerimeter=0;entryX=0.061;entryY=-0.174;entryDx=0;entryDy=0;entryPerimeter=0;" parent="WIyWlLk6GJQsqaUBKTNV-1" source="UTOXGBRC5Ul77BO6yHyL-80" target="UTOXGBRC5Ul77BO6yHyL-38" edge="1">
          <mxGeometry width="50" height="50" relative="1" as="geometry">
            <mxPoint x="-2430" y="630" as="sourcePoint" />
            <mxPoint x="-3050" y="260" as="targetPoint" />
            <Array as="points">
              <mxPoint x="-2530" y="490" />
              <mxPoint x="-2300" y="490" />
              <mxPoint x="-2300" y="260" />
              <mxPoint x="-3000" y="260" />
            </Array>
          </mxGeometry>
        </mxCell>
        <mxCell id="UTOXGBRC5Ul77BO6yHyL-159" value="" style="endArrow=classic;html=1;rounded=0;exitX=0.564;exitY=-0.115;exitDx=0;exitDy=0;exitPerimeter=0;entryX=0.029;entryY=0.003;entryDx=0;entryDy=0;entryPerimeter=0;" parent="WIyWlLk6GJQsqaUBKTNV-1" source="UTOXGBRC5Ul77BO6yHyL-80" target="UTOXGBRC5Ul77BO6yHyL-70" edge="1">
          <mxGeometry width="50" height="50" relative="1" as="geometry">
            <mxPoint x="-2650" y="500" as="sourcePoint" />
            <mxPoint x="-3000" y="430" as="targetPoint" />
            <Array as="points">
              <mxPoint x="-2633" y="490" />
              <mxPoint x="-3050" y="490" />
              <mxPoint x="-3050" y="430" />
              <mxPoint x="-3020" y="430" />
            </Array>
          </mxGeometry>
        </mxCell>
        <mxCell id="UTOXGBRC5Ul77BO6yHyL-160" value="" style="endArrow=classic;html=1;rounded=0;exitX=0.808;exitY=0.062;exitDx=0;exitDy=0;exitPerimeter=0;entryX=0.432;entryY=-0.056;entryDx=0;entryDy=0;entryPerimeter=0;" parent="WIyWlLk6GJQsqaUBKTNV-1" source="UTOXGBRC5Ul77BO6yHyL-117" target="UTOXGBRC5Ul77BO6yHyL-113" edge="1">
          <mxGeometry width="50" height="50" relative="1" as="geometry">
            <mxPoint x="-2437" y="750.0000000000002" as="sourcePoint" />
            <mxPoint x="-3020" y="670" as="targetPoint" />
            <Array as="points">
              <mxPoint x="-2437" y="730" />
              <mxPoint x="-2437" y="670" />
              <mxPoint x="-2990" y="670" />
            </Array>
          </mxGeometry>
        </mxCell>
        <mxCell id="UTOXGBRC5Ul77BO6yHyL-161" value="" style="endArrow=classic;html=1;rounded=0;" parent="WIyWlLk6GJQsqaUBKTNV-1" edge="1">
          <mxGeometry width="50" height="50" relative="1" as="geometry">
            <mxPoint x="-2950" y="950" as="sourcePoint" />
            <mxPoint x="-2960" y="750" as="targetPoint" />
            <Array as="points">
              <mxPoint x="-2950" y="970" />
              <mxPoint x="-3056" y="970" />
              <mxPoint x="-3060" y="730" />
              <mxPoint x="-2960" y="730" />
            </Array>
          </mxGeometry>
        </mxCell>
        <mxCell id="UTOXGBRC5Ul77BO6yHyL-163" value="" style="endArrow=classic;html=1;rounded=0;exitX=0.57;exitY=-0.056;exitDx=0;exitDy=0;exitPerimeter=0;entryX=0.242;entryY=1;entryDx=0;entryDy=0;entryPerimeter=0;" parent="WIyWlLk6GJQsqaUBKTNV-1" source="UTOXGBRC5Ul77BO6yHyL-148" target="UTOXGBRC5Ul77BO6yHyL-141" edge="1">
          <mxGeometry width="50" height="50" relative="1" as="geometry">
            <mxPoint x="-2800" y="900" as="sourcePoint" />
            <mxPoint x="-2950" y="920" as="targetPoint" />
            <Array as="points">
              <mxPoint x="-2810" y="920" />
              <mxPoint x="-2930" y="920" />
            </Array>
          </mxGeometry>
        </mxCell>
        <mxCell id="UTOXGBRC5Ul77BO6yHyL-164" value="" style="endArrow=classic;html=1;rounded=0;exitX=0.297;exitY=0.003;exitDx=0;exitDy=0;exitPerimeter=0;entryX=0.082;entryY=-0.115;entryDx=0;entryDy=0;entryPerimeter=0;" parent="WIyWlLk6GJQsqaUBKTNV-1" source="UTOXGBRC5Ul77BO6yHyL-141" target="UTOXGBRC5Ul77BO6yHyL-117" edge="1">
          <mxGeometry width="50" height="50" relative="1" as="geometry">
            <mxPoint x="-2890" y="850" as="sourcePoint" />
            <mxPoint x="-2950" y="740" as="targetPoint" />
            <Array as="points">
              <mxPoint x="-2905" y="850" />
              <mxPoint x="-3050" y="850" />
              <mxPoint x="-3050" y="740" />
              <mxPoint x="-2980" y="740" />
            </Array>
          </mxGeometry>
        </mxCell>
        <mxCell id="UTOXGBRC5Ul77BO6yHyL-165" value="" style="endArrow=classic;html=1;rounded=0;exitX=0.37;exitY=1.062;exitDx=0;exitDy=0;exitPerimeter=0;entryX=0.019;entryY=-0.115;entryDx=0;entryDy=0;entryPerimeter=0;" parent="WIyWlLk6GJQsqaUBKTNV-1" source="UTOXGBRC5Ul77BO6yHyL-148" target="UTOXGBRC5Ul77BO6yHyL-38" edge="1">
          <mxGeometry width="50" height="50" relative="1" as="geometry">
            <mxPoint x="-2900" y="990" as="sourcePoint" />
            <mxPoint x="-3030" y="320" as="targetPoint" />
            <Array as="points">
              <mxPoint x="-2890" y="983" />
              <mxPoint x="-3087" y="983" />
              <mxPoint x="-3090" y="260" />
              <mxPoint x="-3030" y="260" />
            </Array>
          </mxGeometry>
        </mxCell>
        <mxCell id="UTOXGBRC5Ul77BO6yHyL-166" value="" style="endArrow=classic;html=1;rounded=0;exitX=0.267;exitY=0.003;exitDx=0;exitDy=0;exitPerimeter=0;entryX=0;entryY=-0.174;entryDx=0;entryDy=0;entryPerimeter=0;" parent="WIyWlLk6GJQsqaUBKTNV-1" source="UTOXGBRC5Ul77BO6yHyL-117" target="UTOXGBRC5Ul77BO6yHyL-38" edge="1">
          <mxGeometry width="50" height="50" relative="1" as="geometry">
            <mxPoint x="-2850" y="720" as="sourcePoint" />
            <mxPoint x="-2970" y="270" as="targetPoint" />
            <Array as="points">
              <mxPoint x="-2840" y="720" />
              <mxPoint x="-3080" y="720" />
              <mxPoint x="-3080" y="270" />
              <mxPoint x="-3040" y="270" />
            </Array>
          </mxGeometry>
        </mxCell>
        <mxCell id="UTOXGBRC5Ul77BO6yHyL-167" value="" style="endArrow=classic;html=1;rounded=0;exitX=0.078;exitY=0.003;exitDx=0;exitDy=0;exitPerimeter=0;entryX=0.046;entryY=0.062;entryDx=0;entryDy=0;entryPerimeter=0;" parent="WIyWlLk6GJQsqaUBKTNV-1" source="UTOXGBRC5Ul77BO6yHyL-105" target="UTOXGBRC5Ul77BO6yHyL-38" edge="1">
          <mxGeometry width="50" height="50" relative="1" as="geometry">
            <mxPoint x="-3000" y="630" as="sourcePoint" />
            <mxPoint x="-3060" y="240" as="targetPoint" />
            <Array as="points">
              <mxPoint x="-3010" y="610" />
              <mxPoint x="-2290" y="610" />
              <mxPoint x="-2290" y="250" />
              <mxPoint x="-3010" y="250" />
            </Array>
          </mxGeometry>
        </mxCell>
        <mxCell id="UTOXGBRC5Ul77BO6yHyL-168" value="" style="endArrow=classic;html=1;rounded=0;exitX=0.899;exitY=-0.041;exitDx=0;exitDy=0;exitPerimeter=0;entryX=0.035;entryY=0.003;entryDx=0;entryDy=0;entryPerimeter=0;" parent="WIyWlLk6GJQsqaUBKTNV-1" source="UTOXGBRC5Ul77BO6yHyL-129" target="UTOXGBRC5Ul77BO6yHyL-38" edge="1">
          <mxGeometry width="50" height="50" relative="1" as="geometry">
            <mxPoint x="-2540" y="830" as="sourcePoint" />
            <mxPoint x="-3100" y="240" as="targetPoint" />
            <Array as="points">
              <mxPoint x="-2662" y="790" />
              <mxPoint x="-2280" y="790" />
              <mxPoint x="-2280" y="240" />
              <mxPoint x="-3020" y="240" />
            </Array>
          </mxGeometry>
        </mxCell>
        <mxCell id="UTOXGBRC5Ul77BO6yHyL-169" value="" style="endArrow=classic;html=1;rounded=0;exitX=0.164;exitY=-0.056;exitDx=0;exitDy=0;exitPerimeter=0;entryX=0;entryY=0.5;entryDx=0;entryDy=0;" parent="WIyWlLk6GJQsqaUBKTNV-1" source="UTOXGBRC5Ul77BO6yHyL-99" target="UTOXGBRC5Ul77BO6yHyL-38" edge="1">
          <mxGeometry width="50" height="50" relative="1" as="geometry">
            <mxPoint x="-2990" y="560" as="sourcePoint" />
            <mxPoint x="-3070" y="300" as="targetPoint" />
            <Array as="points">
              <mxPoint x="-3007" y="550" />
              <mxPoint x="-3070" y="550" />
              <mxPoint x="-3070" y="340" />
            </Array>
          </mxGeometry>
        </mxCell>
        <mxCell id="UTOXGBRC5Ul77BO6yHyL-171" value="" style="endArrow=classic;html=1;rounded=0;exitX=0.836;exitY=0.062;exitDx=0;exitDy=0;exitPerimeter=0;entryX=0;entryY=0.5;entryDx=0;entryDy=0;" parent="WIyWlLk6GJQsqaUBKTNV-1" source="UTOXGBRC5Ul77BO6yHyL-38" target="UTOXGBRC5Ul77BO6yHyL-80" edge="1">
          <mxGeometry width="50" height="50" relative="1" as="geometry">
            <mxPoint x="-2600" y="240" as="sourcePoint" />
            <mxPoint x="-3060" y="540" as="targetPoint" />
            <Array as="points">
              <mxPoint x="-2491" y="290" />
              <mxPoint x="-2330" y="290" />
              <mxPoint x="-2330" y="360" />
              <mxPoint x="-3060" y="360" />
              <mxPoint x="-3060" y="520" />
            </Array>
          </mxGeometry>
        </mxCell>
        <mxCell id="UTOXGBRC5Ul77BO6yHyL-172" value="" style="endArrow=classic;html=1;rounded=0;exitX=0.73;exitY=-0.174;exitDx=0;exitDy=0;exitPerimeter=0;entryX=0.055;entryY=0.062;entryDx=0;entryDy=0;entryPerimeter=0;" parent="WIyWlLk6GJQsqaUBKTNV-1" source="UTOXGBRC5Ul77BO6yHyL-38" target="UTOXGBRC5Ul77BO6yHyL-70" edge="1">
          <mxGeometry width="50" height="50" relative="1" as="geometry">
            <mxPoint x="-2580" y="330" as="sourcePoint" />
            <mxPoint x="-2950" y="420" as="targetPoint" />
            <Array as="points">
              <mxPoint x="-2560" y="280" />
              <mxPoint x="-2320" y="280" />
              <mxPoint x="-2320" y="370" />
              <mxPoint x="-3050" y="370" />
              <mxPoint x="-3050" y="420" />
              <mxPoint x="-3000" y="420" />
            </Array>
          </mxGeometry>
        </mxCell>
        <mxCell id="FvUnfVzDuxzmP7i5rPwr-2" value="&lt;p class=&quot;MsoNormal&quot;&gt;&lt;/p&gt;&lt;font style=&quot;&quot;&gt;&lt;font style=&quot;font-size: 24px;&quot;&gt;GIAOVIEN (&lt;b style=&quot;border-color: var(--border-color);&quot;&gt;&lt;u style=&quot;border-color: var(--border-color);&quot;&gt;MA&lt;/u&gt;&lt;/b&gt;, HO, TENLOT, TEN, PHAI, NGSINH, LUONG,&amp;nbsp;&lt;i style=&quot;border-color: var(--border-color);&quot;&gt;&lt;u style=&quot;border-color: var(--border-color);&quot;&gt;BO_MON&lt;/u&gt;&lt;/i&gt;,&amp;nbsp;&lt;i style=&quot;border-color: var(--border-color);&quot;&gt;&lt;u style=&quot;border-color: var(--border-color);&quot;&gt;KHOA&lt;/u&gt;&lt;/i&gt;, PHU_CAP)&lt;span style=&quot;background-color: initial;&quot;&gt;&lt;br&gt;PHONG (&lt;b&gt;MA&lt;/b&gt;, TEN)&lt;br&gt;KHOA (&lt;/span&gt;&lt;b style=&quot;background-color: initial;&quot;&gt;&lt;u&gt;MA&lt;/u&gt;&lt;/b&gt;&lt;span style=&quot;background-color: initial;&quot;&gt;, TEN, NAM_THANH_LAP, &lt;/span&gt;&lt;i style=&quot;background-color: initial;&quot;&gt;&lt;u&gt;PHONG_LAM_VIEC&lt;/u&gt;&lt;/i&gt;&lt;span style=&quot;background-color: initial;&quot;&gt;, &lt;u&gt;&lt;i&gt;SO_DIEN_THOAI&lt;/i&gt;&lt;/u&gt;, &lt;/span&gt;&lt;i style=&quot;background-color: initial;&quot;&gt;&lt;u&gt;TRUONG_KHOA&lt;/u&gt;&lt;/i&gt;&lt;span style=&quot;background-color: initial;&quot;&gt;, NGAY_NHAN_CHUC)&lt;/span&gt;&lt;br&gt;&lt;span style=&quot;background-color: initial;&quot;&gt;BO_MON (&lt;/span&gt;&lt;b style=&quot;background-color: initial;&quot;&gt;&lt;u&gt;MA&lt;/u&gt;&lt;/b&gt;&lt;span style=&quot;background-color: initial;&quot;&gt;, TEN, PHONG, &lt;u&gt;&lt;i&gt;SO_DIEN_THOAI&lt;/i&gt;&lt;/u&gt;, &lt;/span&gt;&lt;i style=&quot;background-color: initial;&quot;&gt;&lt;u&gt;MA_KHOA&lt;/u&gt;&lt;/i&gt;&lt;span style=&quot;background-color: initial;&quot;&gt;,&amp;nbsp;&lt;/span&gt;&lt;i style=&quot;background-color: initial;&quot;&gt;&lt;u&gt;TRUONG_BO_MON&lt;/u&gt;&lt;/i&gt;&lt;span style=&quot;background-color: initial;&quot;&gt;, NGAY_NHAN_CHUC)&lt;/span&gt;&lt;br&gt;&lt;span style=&quot;background-color: initial;&quot;&gt;SDT (&lt;/span&gt;&lt;i style=&quot;background-color: initial;&quot;&gt;&lt;u&gt;MAGV&lt;/u&gt;&lt;/i&gt;&lt;span style=&quot;background-color: initial;&quot;&gt;, &lt;/span&gt;&lt;b style=&quot;background-color: initial;&quot;&gt;&lt;u&gt;SO_DIEN_THOAI&lt;/u&gt;&lt;/b&gt;&lt;span style=&quot;background-color: initial;&quot;&gt;)&lt;/span&gt;&lt;br&gt;&lt;span style=&quot;background-color: initial;&quot;&gt;DIA_CHI (&lt;/span&gt;&lt;i style=&quot;background-color: initial;&quot;&gt;&lt;u&gt;MAGV&lt;/u&gt;&lt;/i&gt;&lt;span style=&quot;background-color: initial;&quot;&gt;, SONHA, DUONG, QUAN, THANHPHO)&lt;/span&gt;&lt;br&gt;&lt;span style=&quot;background-color: initial;&quot;&gt;CHU_DE (&lt;/span&gt;&lt;b style=&quot;background-color: initial;&quot;&gt;&lt;u&gt;MA&lt;/u&gt;&lt;/b&gt;&lt;span style=&quot;background-color: initial;&quot;&gt;, TEN)&lt;/span&gt;&lt;br&gt;&lt;span style=&quot;background-color: initial;&quot;&gt;DE_TAI (STT, &lt;/span&gt;&lt;b style=&quot;background-color: initial;&quot;&gt;&lt;u&gt;MA&lt;/u&gt;&lt;/b&gt;&lt;span style=&quot;background-color: initial;&quot;&gt;, TEN, &lt;/span&gt;&lt;i style=&quot;background-color: initial;&quot;&gt;&lt;u&gt;CAP_QUAN_LY&lt;/u&gt;&lt;/i&gt;&lt;span style=&quot;background-color: initial;&quot;&gt;, KINH_PHI, NGAY_BAT_DAU, NGAY_KET_THUC, &lt;/span&gt;&lt;i style=&quot;background-color: initial;&quot;&gt;&lt;u&gt;CHU_DE&lt;/u&gt;&lt;/i&gt;&lt;span style=&quot;background-color: initial;&quot;&gt;, LA_CAPTRUONG)&lt;/span&gt;&lt;br&gt;&lt;span style=&quot;background-color: initial;&quot;&gt;NGUOI_THAN (STT, HO, TENLOT, TEN, PHAI, NGSINH, &lt;/span&gt;&lt;i style=&quot;background-color: initial;&quot;&gt;&lt;u&gt;MAGV&lt;/u&gt;&lt;/i&gt;&lt;span style=&quot;background-color: initial;&quot;&gt;)&lt;/span&gt;&lt;br&gt;&lt;span style=&quot;background-color: initial;&quot;&gt;CONG_VIEC (&lt;/span&gt;&lt;b style=&quot;background-color: initial;&quot;&gt;&lt;u&gt;STT_CONGVIEC&lt;/u&gt;&lt;/b&gt;&lt;span style=&quot;background-color: initial;&quot;&gt;,&amp;nbsp;&lt;/span&gt;&lt;i style=&quot;background-color: initial;&quot;&gt;&lt;u&gt;MA&lt;/u&gt;&lt;/i&gt;&lt;span style=&quot;background-color: initial;&quot;&gt;, TEN, NGAY_BAT_DAU, NGAY_KET_THUC)&lt;/span&gt;&lt;br&gt;&lt;span style=&quot;background-color: initial;&quot;&gt;THAMGIADT (STT, &lt;/span&gt;&lt;i style=&quot;background-color: initial;&quot;&gt;&lt;u&gt;MA&lt;/u&gt;&lt;/i&gt;&lt;span style=&quot;background-color: initial;&quot;&gt;, &lt;/span&gt;&lt;i style=&quot;background-color: initial;&quot;&gt;&lt;u&gt;MAGV&lt;/u&gt;&lt;/i&gt;&lt;span style=&quot;background-color: initial;&quot;&gt;,&amp;nbsp;&lt;/span&gt;&lt;i style=&quot;background-color: initial;&quot;&gt;&lt;u&gt;STT_CONGVIEC&lt;/u&gt;&lt;/i&gt;&lt;span style=&quot;background-color: initial;&quot;&gt;, KETQUA)&lt;/span&gt;&lt;/font&gt;&lt;br&gt;&lt;/font&gt;" style="rounded=0;whiteSpace=wrap;html=1;" parent="WIyWlLk6GJQsqaUBKTNV-1" vertex="1">
          <mxGeometry x="-2410" y="-985" width="1470" height="400" as="geometry" />
        </mxCell>
        <mxCell id="_oSkFoilzLfx7UyYgn1T-0" value="" style="endArrow=classic;html=1;rounded=0;entryX=0.71;entryY=0.003;entryDx=0;entryDy=0;entryPerimeter=0;exitX=0.388;exitY=1.062;exitDx=0;exitDy=0;exitPerimeter=0;" parent="WIyWlLk6GJQsqaUBKTNV-1" source="UTOXGBRC5Ul77BO6yHyL-80" target="UTOXGBRC5Ul77BO6yHyL-99" edge="1">
          <mxGeometry width="50" height="50" relative="1" as="geometry">
            <mxPoint x="-2730" y="550" as="sourcePoint" />
            <mxPoint x="-2890" y="490" as="targetPoint" />
            <Array as="points">
              <mxPoint x="-2760" y="540" />
              <mxPoint x="-2898" y="540" />
            </Array>
          </mxGeometry>
        </mxCell>
        <mxCell id="_oSkFoilzLfx7UyYgn1T-4" value="" style="endArrow=classic;html=1;rounded=0;entryX=1;entryY=0.5;entryDx=0;entryDy=0;exitX=0.743;exitY=-0.056;exitDx=0;exitDy=0;exitPerimeter=0;" parent="WIyWlLk6GJQsqaUBKTNV-1" source="UTOXGBRC5Ul77BO6yHyL-70" target="UTOXGBRC5Ul77BO6yHyL-99" edge="1">
          <mxGeometry width="50" height="50" relative="1" as="geometry">
            <mxPoint x="-2540" y="420" as="sourcePoint" />
            <mxPoint x="-2740" y="550" as="targetPoint" />
            <Array as="points">
              <mxPoint x="-2500" y="420" />
              <mxPoint x="-2310" y="420" />
              <mxPoint x="-2310" y="580" />
            </Array>
          </mxGeometry>
        </mxCell>
        <mxCell id="b8Esm8HIKwyEbSy9mFFW-61" value="&lt;font style=&quot;font-size: 20px;&quot;&gt;CONG_VIEC&lt;/font&gt;" style="rounded=0;whiteSpace=wrap;html=1;" parent="WIyWlLk6GJQsqaUBKTNV-1" vertex="1">
          <mxGeometry x="223" y="-815" width="130" height="60" as="geometry" />
        </mxCell>
        <mxCell id="U_kQY5fbFKBCGfHQ22JH-3" value="" style="endArrow=none;html=1;rounded=0;entryX=0.25;entryY=1;entryDx=0;entryDy=0;exitX=1;exitY=0.5;exitDx=0;exitDy=0;" parent="WIyWlLk6GJQsqaUBKTNV-1" source="ohicSznDH1DP1seRyiTe-86" target="b8Esm8HIKwyEbSy9mFFW-27" edge="1">
          <mxGeometry width="50" height="50" relative="1" as="geometry">
            <mxPoint x="870" y="350" as="sourcePoint" />
            <mxPoint x="690" y="-915" as="targetPoint" />
          </mxGeometry>
        </mxCell>
        <mxCell id="U_kQY5fbFKBCGfHQ22JH-4" value="&lt;font style=&quot;font-size: 20px;&quot;&gt;(1, n)&lt;/font&gt;" style="edgeLabel;html=1;align=center;verticalAlign=middle;resizable=0;points=[];" parent="U_kQY5fbFKBCGfHQ22JH-3" vertex="1" connectable="0">
          <mxGeometry x="-0.1494" y="2" relative="1" as="geometry">
            <mxPoint as="offset" />
          </mxGeometry>
        </mxCell>
        <mxCell id="UTOXGBRC5Ul77BO6yHyL-3" value="&lt;font style=&quot;font-size: 20px;&quot;&gt;THAMGIADT&lt;/font&gt;" style="rhombus;whiteSpace=wrap;html=1;" parent="WIyWlLk6GJQsqaUBKTNV-1" vertex="1">
          <mxGeometry x="653" y="-670" width="160" height="100" as="geometry" />
        </mxCell>
        <mxCell id="U_kQY5fbFKBCGfHQ22JH-12" value="&lt;font style=&quot;font-size: 24px;&quot;&gt;&lt;b&gt;GIAOVIEN&lt;/b&gt;&lt;/font&gt;" style="text;html=1;align=center;verticalAlign=middle;resizable=0;points=[];autosize=1;strokeColor=none;fillColor=none;" parent="WIyWlLk6GJQsqaUBKTNV-1" vertex="1">
          <mxGeometry x="-3268" y="319.5" width="135" height="41" as="geometry" />
        </mxCell>
        <mxCell id="U_kQY5fbFKBCGfHQ22JH-13" value="&lt;font style=&quot;font-size: 24px;&quot;&gt;&lt;b&gt;PHONG&lt;/b&gt;&lt;/font&gt;" style="text;html=1;align=center;verticalAlign=middle;resizable=0;points=[];autosize=1;strokeColor=none;fillColor=none;" parent="WIyWlLk6GJQsqaUBKTNV-1" vertex="1">
          <mxGeometry x="-3265" y="379.5" width="106" height="41" as="geometry" />
        </mxCell>
        <mxCell id="U_kQY5fbFKBCGfHQ22JH-14" value="&lt;font style=&quot;font-size: 24px;&quot;&gt;&lt;b&gt;KHOA&lt;/b&gt;&lt;/font&gt;" style="text;html=1;align=center;verticalAlign=middle;resizable=0;points=[];autosize=1;strokeColor=none;fillColor=none;" parent="WIyWlLk6GJQsqaUBKTNV-1" vertex="1">
          <mxGeometry x="-3265" y="439.5" width="89" height="41" as="geometry" />
        </mxCell>
        <mxCell id="U_kQY5fbFKBCGfHQ22JH-15" value="&lt;font style=&quot;font-size: 24px;&quot;&gt;&lt;b&gt;BO_MON&lt;/b&gt;&lt;/font&gt;" style="text;html=1;align=center;verticalAlign=middle;resizable=0;points=[];autosize=1;strokeColor=none;fillColor=none;" parent="WIyWlLk6GJQsqaUBKTNV-1" vertex="1">
          <mxGeometry x="-3265" y="499.5" width="123" height="41" as="geometry" />
        </mxCell>
        <mxCell id="U_kQY5fbFKBCGfHQ22JH-16" value="&lt;font style=&quot;font-size: 24px;&quot;&gt;&lt;b&gt;SDT&lt;/b&gt;&lt;/font&gt;" style="text;html=1;align=center;verticalAlign=middle;resizable=0;points=[];autosize=1;strokeColor=none;fillColor=none;" parent="WIyWlLk6GJQsqaUBKTNV-1" vertex="1">
          <mxGeometry x="-3265" y="559.5" width="66" height="41" as="geometry" />
        </mxCell>
        <mxCell id="U_kQY5fbFKBCGfHQ22JH-17" value="&lt;font style=&quot;font-size: 24px;&quot;&gt;&lt;b&gt;DIA_CHI&lt;/b&gt;&lt;/font&gt;" style="text;html=1;align=center;verticalAlign=middle;resizable=0;points=[];autosize=1;strokeColor=none;fillColor=none;" parent="WIyWlLk6GJQsqaUBKTNV-1" vertex="1">
          <mxGeometry x="-3265" y="619.5" width="114" height="41" as="geometry" />
        </mxCell>
        <mxCell id="U_kQY5fbFKBCGfHQ22JH-18" value="&lt;font style=&quot;font-size: 24px;&quot;&gt;&lt;b&gt;CHU_DE&lt;/b&gt;&lt;/font&gt;" style="text;html=1;align=center;verticalAlign=middle;resizable=0;points=[];autosize=1;strokeColor=none;fillColor=none;" parent="WIyWlLk6GJQsqaUBKTNV-1" vertex="1">
          <mxGeometry x="-3265" y="679.5" width="117" height="41" as="geometry" />
        </mxCell>
        <mxCell id="U_kQY5fbFKBCGfHQ22JH-19" value="&lt;font style=&quot;font-size: 24px;&quot;&gt;&lt;b&gt;DE_TAI&lt;/b&gt;&lt;/font&gt;" style="text;html=1;align=center;verticalAlign=middle;resizable=0;points=[];autosize=1;strokeColor=none;fillColor=none;" parent="WIyWlLk6GJQsqaUBKTNV-1" vertex="1">
          <mxGeometry x="-3265" y="739.5" width="102" height="41" as="geometry" />
        </mxCell>
        <mxCell id="U_kQY5fbFKBCGfHQ22JH-20" value="&lt;font style=&quot;font-size: 24px;&quot;&gt;&lt;b&gt;NGUOI_THAN&lt;/b&gt;&lt;/font&gt;" style="text;html=1;align=center;verticalAlign=middle;resizable=0;points=[];autosize=1;strokeColor=none;fillColor=none;" parent="WIyWlLk6GJQsqaUBKTNV-1" vertex="1">
          <mxGeometry x="-3268" y="794.5" width="177" height="41" as="geometry" />
        </mxCell>
        <mxCell id="U_kQY5fbFKBCGfHQ22JH-22" value="&lt;font style=&quot;font-size: 24px;&quot;&gt;&lt;b&gt;CONG_VIEC&lt;/b&gt;&lt;/font&gt;" style="text;html=1;align=center;verticalAlign=middle;resizable=0;points=[];autosize=1;strokeColor=none;fillColor=none;" parent="WIyWlLk6GJQsqaUBKTNV-1" vertex="1">
          <mxGeometry x="-3268" y="859.5" width="159" height="41" as="geometry" />
        </mxCell>
        <mxCell id="U_kQY5fbFKBCGfHQ22JH-23" value="&lt;b&gt;&lt;font style=&quot;font-size: 24px;&quot;&gt;THAMGIADT&lt;/font&gt;&lt;/b&gt;" style="text;strokeColor=none;align=center;fillColor=none;html=1;verticalAlign=middle;whiteSpace=wrap;rounded=0;" parent="WIyWlLk6GJQsqaUBKTNV-1" vertex="1">
          <mxGeometry x="-3268" y="919.75" width="156.5" height="40.5" as="geometry" />
        </mxCell>
      </root>
    </mxGraphModel>
  </diagram>
</mxfile>
